<svg xmlns="http://www.w3.org/2000/svg" width="24" height="24" viewBox="0 0 24 24">
  <g id="vuesax_bulk_call-slash" data-name="vuesax/bulk/call-slash" transform="translate(-620 -188)">
    <g id="call-slash">
      <path id="Vector" d="M12.94,4.29a2.545,2.545,0,0,1-.25,1.09,4.126,4.126,0,0,1-.68,1.02,4.508,4.508,0,0,1-1.64,1.18,5.072,5.072,0,0,1-1.96.38,8.334,8.334,0,0,1-3.26-.73A17.629,17.629,0,0,1,1.7,5.25C1.12,4.82.55,4.38,0,3.9L3.26.64c.01,0,.01,0,.02.01a7.675,7.675,0,0,0,1.29.92c.05.02.11.05.18.08A.69.69,0,0,0,5,1.69a.55.55,0,0,0,.41-.17L6.17.77A3.068,3.068,0,0,1,6.89.21,1.332,1.332,0,0,1,7.6,0a1.6,1.6,0,0,1,.61.13,3.868,3.868,0,0,1,.7.39l3.32,2.35a1.517,1.517,0,0,1,.55.64A2.052,2.052,0,0,1,12.94,4.29Z" transform="translate(629.06 202.04)" fill="#d6262d"/>
      <path id="Vector-2" data-name="Vector" d="M8.76,11.24,5.5,14.5c-.01,0-.01,0-.02-.01a29.544,29.544,0,0,1-2.8-3.27A17.9,17.9,0,0,1,.74,7.86C.73,7.84.73,7.83.72,7.81A8.423,8.423,0,0,1,0,4.54,5.173,5.173,0,0,1,.36,2.61a4.35,4.35,0,0,1,.91-1.42A2.775,2.775,0,0,1,1.51.94,3.046,3.046,0,0,1,2,.53h.01A2.663,2.663,0,0,1,3.6,0a1.879,1.879,0,0,1,.81.18,1.565,1.565,0,0,1,.62.5c.02.02.03.04.05.06L7.4,4.01a3.422,3.422,0,0,1,.4.7,1.581,1.581,0,0,1,.14.61,1.357,1.357,0,0,1-.21.71,3.4,3.4,0,0,1-.56.71l-.76.79a.535.535,0,0,0-.16.4.908.908,0,0,0,.03.23c.03.08.06.14.08.2a8.3,8.3,0,0,0,.93,1.28c.45.52.93,1.05,1.45,1.58Z" transform="translate(622 190)" fill="#d6262d" opacity="0.4"/>
      <path id="Vector-3" data-name="Vector" d="M19.765.225a.773.773,0,0,0-1.09,0L.225,18.685a.773.773,0,0,0,0,1.09.791.791,0,0,0,.54.22.758.758,0,0,0,.54-.23L19.765,1.3A.743.743,0,0,0,19.765.225Z" transform="translate(622.005 190.005)" fill="#d6262d"/>
      <path id="Vector-4" data-name="Vector" d="M0,0H24V24H0Z" transform="translate(620 188)" fill="none" opacity="0"/>
    </g>
  </g>
</svg>
