<svg xmlns="http://www.w3.org/2000/svg" width="27.028" height="37.001" viewBox="0 0 27.028 37.001">
  <g id="google-maps" transform="translate(-69 0)">
    <path id="Path_869" data-name="Path 869" d="M82.514,0A13.518,13.518,0,0,0,69,13.521c0,8.221,5.633,10.158,8.588,15.2C80.339,33.409,80.341,37,82.514,37c2.253,0,2.111-3.346,4.926-8.282s8.588-6.977,8.588-15.2A13.518,13.518,0,0,0,82.514,0Zm0,18.7a5.058,5.058,0,1,1,5.055-5.058A5.057,5.057,0,0,1,82.514,18.7Z" fill="#4caf50"/>
    <g id="Group_747" data-name="Group 747" transform="translate(81.397 0)">
      <path id="Path_870" data-name="Path 870" d="M241.662,0c-.376,0-.748.016-1.117.046a13.519,13.519,0,0,1,12.4,13.475c0,8.221-5.773,10.261-8.588,15.2-2.23,3.909-2.6,6.821-3.783,7.863a1.558,1.558,0,0,0,1.091.419c2.253,0,2.111-3.346,4.926-8.282s8.588-6.977,8.588-15.2A13.518,13.518,0,0,0,241.662,0Z" transform="translate(-240.545)" fill="#43a047"/>
    </g>
    <path id="Path_871" data-name="Path 871" d="M78.94,61.705,70.055,70.6A13.244,13.244,0,0,1,69,65.159a13.481,13.481,0,0,1,3.9-9.5Z" transform="translate(-0.001 -51.638)" fill="#f44336"/>
    <path id="Path_872" data-name="Path 872" d="M213.719,31.469a5.057,5.057,0,0,0-7.185-7.117l8.95-8.955a13.561,13.561,0,0,1,7.1,7.2l-8.866,8.87Z" transform="translate(-127.595 -14.283)" fill="#42a5f5"/>
    <path id="Path_873" data-name="Path 873" d="M320.7,15.4l-.754.755a13.548,13.548,0,0,1,6.191,8.113L327.8,22.6A13.561,13.561,0,0,0,320.7,15.4Z" transform="translate(-232.809 -14.283)" fill="#2196f3"/>
    <path id="Path_874" data-name="Path 874" d="M99.658,146.433,89.9,156.2c-2.122-2.674-4.844-4.64-6.312-7.992l8.885-8.89a5.057,5.057,0,1,0,7.185,7.117Z" transform="translate(-13.534 -129.247)" fill="#ffc107"/>
    <path id="Path_875" data-name="Path 875" d="M137.917,1.113l-8.95,8.955-6.042-6.045a13.519,13.519,0,0,1,14.992-2.91Z" transform="translate(-50.028 0)" fill="#1e88e5"/>
    <path id="Path_876" data-name="Path 876" d="M241.663,0q-.564,0-1.117.046h0a13.426,13.426,0,0,1,5.738,1.821l.754-.755A13.456,13.456,0,0,0,241.663,0Z" transform="translate(-159.149 0)" fill="#1976d2"/>
  </g>
</svg>
