<svg xmlns="http://www.w3.org/2000/svg" xmlns:xlink="http://www.w3.org/1999/xlink" width="41" height="41" viewBox="0 0 41 41">
  <defs>
    <linearGradient id="linear-gradient" x1="0.119" y1="0.881" x2="0.83" y2="0.17" gradientUnits="objectBoundingBox">
      <stop offset="0" stop-color="#fee411"/>
      <stop offset="0.052" stop-color="#fedb16"/>
      <stop offset="0.138" stop-color="#fec125"/>
      <stop offset="0.248" stop-color="#fe983d"/>
      <stop offset="0.376" stop-color="#fe5f5e"/>
      <stop offset="0.5" stop-color="#fe2181"/>
      <stop offset="1" stop-color="#9000dc"/>
    </linearGradient>
  </defs>
  <g id="instagram_5_" data-name="instagram (5)" transform="translate(-31.201 -31.201)">
    <circle id="Ellipse_28" data-name="Ellipse 28" cx="20.5" cy="20.5" r="20.5" transform="translate(31.201 31.201)" fill="url(#linear-gradient)"/>
    <g id="Group_734" data-name="Group 734" transform="translate(40.289 40.279)">
      <path id="Path_863" data-name="Path 863" d="M147.157,131h-8.879a7.182,7.182,0,0,0-7.178,7.178v8.879a7.182,7.182,0,0,0,7.178,7.178h8.879a7.182,7.182,0,0,0,7.178-7.178v-8.879A7.182,7.182,0,0,0,147.157,131Zm4.584,16.066a4.6,4.6,0,0,1-4.593,4.593h-8.879a4.6,4.6,0,0,1-4.593-4.593v-8.879a4.6,4.6,0,0,1,4.593-4.593h8.879a4.6,4.6,0,0,1,4.593,4.593Z" transform="translate(-131.1 -131)" fill="#fff"/>
      <path id="Path_864" data-name="Path 864" d="M198.041,192.1a5.941,5.941,0,1,0,5.941,5.941A5.952,5.952,0,0,0,198.041,192.1Zm0,9.549a3.607,3.607,0,1,1,3.607-3.607A3.611,3.611,0,0,1,198.041,201.649Z" transform="translate(-186.429 -186.419)" fill="#fff"/>
      <circle id="Ellipse_29" data-name="Ellipse 29" cx="1.004" cy="1.004" r="1.004" transform="matrix(0.987, -0.16, 0.16, 0.987, 16.694, 4.511)" fill="#fff"/>
    </g>
  </g>
</svg>
