<svg xmlns="http://www.w3.org/2000/svg" width="44.711" height="44.727" viewBox="0 0 44.711 44.727">
  <g id="svgexport-6_89_" data-name="svgexport-6 (89)" transform="translate(-0.188 -0.188)">
    <g id="Intestine" transform="translate(0.188 0.188)">
      <path id="Path_132" data-name="Path 132" d="M25.34,44.915a1.4,1.4,0,0,1-1.4-1.4V40.284a3.5,3.5,0,0,1,3.5-3.5h10.05a2.1,2.1,0,0,0,2.1-2.1v-.175a1.4,1.4,0,0,1,.39-.961,4.552,4.552,0,0,0-.058-5.991,1.4,1.4,0,0,1,0-1.991,4.539,4.539,0,0,0,0-6.049,1.4,1.4,0,0,1,0-1.991,4.589,4.589,0,0,0,.338-5.659,1.4,1.4,0,0,1,.3-1.957,3.845,3.845,0,1,0-5.375-5.375,1.4,1.4,0,0,1-1.957.3,4.58,4.58,0,0,0-5.659.334,1.4,1.4,0,0,1-1.991,0,4.539,4.539,0,0,0-6.049,0,1.4,1.4,0,0,1-1.991,0,4.589,4.589,0,0,0-5.659-.338,1.4,1.4,0,0,1-1.957-.291A3.845,3.845,0,1,0,4.541,9.912a1.4,1.4,0,0,1,.3,1.957,4.58,4.58,0,0,0,.334,5.659,1.4,1.4,0,0,1,0,1.991,4.539,4.539,0,0,0,0,6.049,1.4,1.4,0,0,1,0,1.991,4.243,4.243,0,0,0-1.154,3.025c0,2.037,1.28,3.758,2.8,3.758H9.085a1.4,1.4,0,0,1,1.4,1.4v3.583a1.223,1.223,0,0,0,1.223,1.223h.7v-6.9a1.223,1.223,0,0,0-1.223-1.223h-.19a1.4,1.4,0,0,1-1.4-1.491,4.345,4.345,0,0,0-1.142-3.369,1.4,1.4,0,0,1,0-1.991,4.539,4.539,0,0,0,0-6.049,1.4,1.4,0,0,1,0-1.991,4.589,4.589,0,0,0,.338-5.659,1.4,1.4,0,0,1,.295-1.957,3.87,3.87,0,0,0,.823-.823,1.4,1.4,0,0,1,1.957-.295,4.588,4.588,0,0,0,5.659-.338,1.4,1.4,0,0,1,1.991,0,4.539,4.539,0,0,0,6.049,0,1.4,1.4,0,0,1,1.991,0,4.589,4.589,0,0,0,5.659.338,1.4,1.4,0,0,1,1.96.291A3.87,3.87,0,0,0,36,9.909a1.4,1.4,0,0,1,.295,1.957,4.588,4.588,0,0,0,.338,5.659,1.4,1.4,0,0,1,0,1.991,4.539,4.539,0,0,0,0,6.049,1.4,1.4,0,0,1,0,1.991,4.561,4.561,0,0,0-.9,4.58,1.4,1.4,0,0,1-1.322,1.856H26.389a5.25,5.25,0,0,0-5.243,5.243v4.282a1.4,1.4,0,1,1-2.8,0V39.235a8.049,8.049,0,0,1,8.04-8.04H32.7a7.392,7.392,0,0,1,1.147-4.632,7.49,7.49,0,0,1,0-8.04,7.522,7.522,0,0,1-.741-6.546,7.521,7.521,0,0,1-6.546-.741,7.49,7.49,0,0,1-8.04,0,7.522,7.522,0,0,1-6.546.741,7.521,7.521,0,0,1-.741,6.546,7.49,7.49,0,0,1,0,8.04A7.185,7.185,0,0,1,12.367,29.8,4.026,4.026,0,0,1,15.2,33.642v8.3a1.4,1.4,0,0,1-1.4,1.4h-2.1a4.025,4.025,0,0,1-4.02-4.02V37.138H6.813c-3.084,0-5.593-2.94-5.593-6.554a7.3,7.3,0,0,1,1.17-4.02,7.49,7.49,0,0,1,0-8.04,7.524,7.524,0,0,1-.465-7.215,6.642,6.642,0,0,1,9.383-9.383,7.524,7.524,0,0,1,7.215.465,7.49,7.49,0,0,1,8.04,0,7.524,7.524,0,0,1,7.215-.465,6.642,6.642,0,0,1,9.383,9.383,7.524,7.524,0,0,1-.465,7.215,7.49,7.49,0,0,1,0,8.04,7.453,7.453,0,0,1-.329,8.494,4.9,4.9,0,0,1-4.88,4.527H27.437a.7.7,0,0,0-.7.7v3.233a1.4,1.4,0,0,1-1.4,1.4Z" transform="translate(-0.188 -0.188)" fill="#61C5CB"/>
      <g id="Group_32" data-name="Group 32" transform="translate(19.559 39.029)" opacity="0.2">
        <path id="Path_133" data-name="Path 133" d="M229.886,446.79a2.079,2.079,0,0,0-.293,1.067v3.233H224v-2.534h.087A10.346,10.346,0,0,0,229.886,446.79Z" transform="translate(-224 -446.79)" fill="#61C5CB"/>
      </g>
      <path id="Path_134" data-name="Path 134" d="M107.67,121.189a1.4,1.4,0,1,1,.949-2.63c1.844.665,4.5,1.29,6.663.486a3.586,3.586,0,0,0,1.331-1.126c1.5-1.93.726-3.311.132-3.962-1.972-2.166-1.244-5.156.2-7.7a1.4,1.4,0,0,1,2.433,1.379c-.741,1.311-1.58,3.321-.564,4.439,2.058,2.258,1.835,5.212.01,7.561a6.239,6.239,0,0,1-2.568,2.032C113.547,122.671,110.389,122.17,107.67,121.189Z" transform="translate(-97.434 -96.339)" fill="#61C5CB"/>
      <path id="Path_135" data-name="Path 135" d="M109.806,177.338a10.965,10.965,0,0,1-5.626-2.36,1.4,1.4,0,0,1,1.776-2.16,8.254,8.254,0,0,0,4.219,1.748,1.4,1.4,0,1,1-.369,2.772Z" transform="translate(-94.626 -157.441)" fill="#61C5CB"/>
      <path id="Path_136" data-name="Path 136" d="M241.364,222.27a1.4,1.4,0,0,1-1.232-.735c-1.087-2.02-1.4-3.745-.936-5.125a3.762,3.762,0,0,1,2.1-2.226c3.812-1.72,4.249-2.02,4.249-3.794a4.465,4.465,0,0,1,1.632-3.818c1.32-.983,3.268-1.1,5.79-.35a1.4,1.4,0,1,1-.8,2.682c-1.537-.46-2.778-.494-3.321-.087a1.92,1.92,0,0,0-.5,1.573c0,3.751-2.305,4.719-5.768,6.286-.315.142-.612.283-.727.63a4.395,4.395,0,0,0,.749,2.9,1.4,1.4,0,0,1-1.229,2.062Z" transform="translate(-218.119 -187.772)" fill="#61C5CB"/>
      <path id="Path_137" data-name="Path 137" d="M147,406.595a15.371,15.371,0,0,1-6.584-1.878,1.4,1.4,0,1,1,1.377-2.433,12.632,12.632,0,0,0,5.4,1.521A1.4,1.4,0,1,1,147,406.6Z" transform="translate(-127.485 -366.964)" fill="#61C5CB"/>
      <path id="Path_138" data-name="Path 138" d="M136.649,324.565a1.4,1.4,0,1,1,.187-2.791c1.073.071,2.132-.67,3.059-2.145a1.4,1.4,0,1,1,2.367,1.491C140.994,323.143,139.071,324.728,136.649,324.565Z" transform="translate(-123.532 -291.116)" fill="#61C5CB"/>
      <path id="Path_139" data-name="Path 139" d="M221.661,248.266a12.474,12.474,0,0,1-5.216-5.313,1.4,1.4,0,0,1,2.5-1.258,9.679,9.679,0,0,0,4.063,4.12,1.4,1.4,0,1,1-1.344,2.452Z" transform="translate(-197.41 -219.887)" fill="#61C5CB"/>
      <path id="Path_140" data-name="Path 140" d="M214.868,164.418a1.4,1.4,0,0,1,.586-1.889,8.746,8.746,0,0,1,7.38-.524,1.4,1.4,0,0,1-1,2.615,5.958,5.958,0,0,0-5.08.389,1.4,1.4,0,0,1-1.889-.591Z" transform="translate(-195.96 -147.333)" fill="#61C5CB"/>
      <g id="Group_33" data-name="Group 33" transform="translate(33.234 1.381)" opacity="0.2">
        <path id="Path_141" data-name="Path 141" d="M387.954,32.949a5.929,5.929,0,0,1,0,8.04,5.941,5.941,0,0,1,.087,7.952v.175a3.5,3.5,0,0,1-3.5,3.5H380.48c1.841-.9,3.978-3.344,3.978-4.894v-.175a5.936,5.936,0,0,0-.087-7.953,5.929,5.929,0,0,0,0-8.04,5.983,5.983,0,0,0,.481-7.486A5.232,5.232,0,0,0,385.3,16a5.243,5.243,0,0,1,3.138,9.468A5.982,5.982,0,0,1,387.954,32.949Z" transform="translate(-380.48 -15.995)" fill="#61C5CB"/>
      </g>
      <g id="Group_34" data-name="Group 34" transform="translate(13.616 9.735)" opacity="0.2">
        <path id="Path_142" data-name="Path 142" d="M177.848,128.23a5.952,5.952,0,0,0-1.239,6.03h-8.024a6.642,6.642,0,0,0-6.593,5.831,13.968,13.968,0,0,1-5.991-1.7v-2.568a18.626,18.626,0,0,0,16.1-23.184,5.985,5.985,0,0,0,4.144-1.049,5.3,5.3,0,0,0,1.119,1.119,5.983,5.983,0,0,0,.481,7.486,5.921,5.921,0,0,0,0,8.036Z" transform="translate(-156 -111.59)" fill="#61C5CB"/>
      </g>
    </g>
  </g>
</svg>
