<svg xmlns="http://www.w3.org/2000/svg" width="37.001" height="37.001" viewBox="0 0 37.001 37.001">
  <g id="send" transform="translate(0 0)">
    <path id="Path_867" data-name="Path 867" d="M23.723,37a3.4,3.4,0,0,1-3.259-2.458l-4-14-14-4a3.409,3.409,0,0,1-.015-6.543L35.605.046a1.084,1.084,0,0,1,1.35,1.35L27.006,34.558A3.407,3.407,0,0,1,23.723,37Z" transform="translate(0 0)" fill="#02d9ff"/>
    <path id="Path_868" data-name="Path 868" d="M235.06,41.077a3.4,3.4,0,0,1-3.259-2.458l-4-14L248.021,4.394a1.084,1.084,0,0,1,.272,1.078l-9.949,33.162A3.407,3.407,0,0,1,235.06,41.077Z" transform="translate(-211.338 -4.076)" fill="#23b0ff"/>
  </g>
</svg>
