<svg xmlns="http://www.w3.org/2000/svg" width="41.091" height="41.091" viewBox="0 0 41.091 41.091">
  <g id="svgexport-6_38_" data-name="svgexport-6 (38)" transform="translate(-20.544 -20.545)">
    <g id="Group_418" data-name="Group 418" transform="translate(20.544 20.545)">
      <path id="Path_760" data-name="Path 760" d="M28.56,17.423H26.847V15.71a1.712,1.712,0,0,0-3.423,0v1.713H21.71a1.712,1.712,0,1,0,0,3.423h1.713v1.713a1.712,1.712,0,0,0,3.423,0V20.847h1.713a1.712,1.712,0,1,0,0-3.423Z" transform="translate(10.818 1.409)" fill="#61C5CB"/>
      <path id="Path_761" data-name="Path 761" d="M23.228,11.423H21.515V9.713a1.712,1.712,0,1,0-3.423,0v1.713H16.379a1.713,1.713,0,0,0,0,3.426h1.713v1.713a1.713,1.713,0,0,0,3.426-.005V14.847h1.71a1.712,1.712,0,1,0,0-3.423Z" transform="translate(2.454 -8)" fill="#61C5CB"/>
      <path id="Path_762" data-name="Path 762" d="M35.138,12.925a5.147,5.147,0,0,1-2.124,2.74,2.547,2.547,0,0,1,.668,1.746,26.531,26.531,0,0,1-1.233,8.013L31.4,28.73a30.33,30.33,0,0,0-1.215,5.889l-.547,5.1a.764.764,0,0,1-.752.719.782.782,0,0,1-.752-.65l-1.369-7.448a4.275,4.275,0,0,0-8.424,0l-1.369,7.43a.784.784,0,0,1-.752.668.764.764,0,0,1-.752-.719l-.555-5.1A30.291,30.291,0,0,0,13.7,28.73l-1.045-3.305a26.531,26.531,0,0,1-1.233-8.013,2.637,2.637,0,0,1,2.671-2.653,10.988,10.988,0,0,1,4.846,1.284,7.806,7.806,0,0,0,7.224,0c.393-.187.77-.36,1.148-.514a5.078,5.078,0,0,1-1.97-2.7.4.4,0,0,1-.187-.087c-.172.069-.342.154-.514.239a4.316,4.316,0,0,1-4.178,0,14.33,14.33,0,0,0-6.472-1.644A6.04,6.04,0,0,0,8,17.412a30.011,30.011,0,0,0,1.387,9.04l1.045,3.305a26.242,26.242,0,0,1,1.079,5.221l.547,5.1a4.185,4.185,0,0,0,8.288.324L21.7,32.957a.865.865,0,0,1,1.71,0L24.762,40.4A4.192,4.192,0,0,0,31.7,42.785a4.328,4.328,0,0,0,1.353-2.7l.547-5.1a26.166,26.166,0,0,1,1.079-5.221l1.045-3.305a30.011,30.011,0,0,0,1.387-9.04,6.067,6.067,0,0,0-1.97-4.487Z" transform="translate(-8 -2.773)" fill="#61C5CB"/>
    </g>
  </g>
</svg>
