<svg xmlns="http://www.w3.org/2000/svg" width="35.967" height="34.5" viewBox="0 0 35.967 34.5">
  <g id="snapchat_1_" data-name="snapchat (1)" transform="translate(0.001 -0.479)">
    <path id="Path_865" data-name="Path 865" d="M30.354,28.758c1.47-.235,4.539-.791,4.624-2.273a.813.813,0,0,0-.674-.853h0c-4.536-.761-7.392-5.983-6.951-7.028.318-.755,1.735-1.047,2.36-1.293,2.991-1.2,1.7-3.25-.064-3.25-.8,0-1.74.863-2.61.457.27-4.593.749-7.828-2.5-10.957C20.322-.5,11.766-.023,8.847,6.639c-.868,1.976-.535,5.589-.4,7.877a2.785,2.785,0,0,1-2.1-.312c-1.53-.728-4.146,1.665-.571,3.1,1.549.619,3.015.8,2.2,2.489a11.971,11.971,0,0,1-1.753,2.778C2.859,26.562-.207,24.932.6,26.843v0c.511,1.215,3.226,1.7,4.539,1.912.361.688.1,2.267,1.329,2.267a11.75,11.75,0,0,1,3.891-.21c2.658.453,5.678,6.075,12.359,1.277v0c1.44-1.034,2.451-1.8,5.514-1.185,2.221.438,1.6-1.122,2.12-2.146Z" transform="translate(0.234 0.244)" fill="#ffeb3b"/>
    <path id="Path_866" data-name="Path 866" d="M17.9,34.966c.025,0-.049.009-.127.009a8.469,8.469,0,0,1-5.2-2.033c-4.6-3.312-6.668,1.716-7.777-3.276C-1.56,28.537-.311,25.4,1.306,25.134a7.7,7.7,0,0,0,4.584-2.8c.787-.931,1.937-2.87,1.8-3.2-.15-.36-1.507-.709-1.946-.886-4.521-1.822-1.3-5.648,1.167-4.477A3.5,3.5,0,0,0,7.9,14.1c-.138-2.249-.375-5.528.5-7.521,3.55-8.113,15.6-8.162,19.171,0,.878,2,.637,5.27.5,7.488.733-.183,1.551-.854,2.855-.315,2.038.742,2.544,3.493-1.25,4.684-.345.112-1.271.411-1.391.7-.175.42,2.168,5.293,6.385,6a1.56,1.56,0,0,1,1.3,1.636c-.108,1.9-2.9,2.555-4.792,2.892C30.894,30.92,30.689,32,29.3,32c-2.368-.139-3.118-1.061-5.91.95-1.651,1.181-3.276,2.159-5.495,2.02Zm4.473-3.135C25.763,29.393,26.589,30.3,29.3,30.5c.325,0,.093-.559.791-2.173.593-.118,3.948-.59,4.344-1.524h0l-.021-.183c-5.047-.848-7.245-6.027-7.336-6.247-1.5-3.081,2.633-3.055,3.7-4.172.435-.456.123-.854-.4-1.046-.9-.372-1.2.4-2.594.463a2.78,2.78,0,0,1-1.289-.391c.333-4.671.791-7.96-2.24-10.88C20.426.663,12.479.985,9.769,7.183c-.817,1.858-.451,5.619-.3,8.051-.289.055-1.1.9-3.205-.111-.577-.274-2.6.673.033,1.734.707.283,2.308.586,2.772,1.7.713,1.717-2.756,7.254-7.518,8.054h0l-.025.186c.423,1.007,4.187,1.474,4.337,1.521A7.808,7.808,0,0,1,6.5,30.373c.159.539,1.488-.529,4.226-.052,2.861.487,5.661,5.8,11.65,1.51Z" transform="translate(0 0)" fill="#212121"/>
  </g>
</svg>
