<svg id="whatsapp" xmlns="http://www.w3.org/2000/svg" width="40.533" height="40.533" viewBox="0 0 40.533 40.533">
  <path id="Path_860" data-name="Path 860" d="M34.655,5.825A20.506,20.506,0,0,0,20.342,0,20.119,20.119,0,0,0,2.864,30.126L0,40.533l10.7-2.79a21.216,21.216,0,0,0,9.654,2.444c17.958,0,26.9-21.726,14.278-34.3Z" fill="#eceff1"/>
  <path id="Path_861" data-name="Path 861" d="M18.912,35.38l-.01,0h-.027A17.017,17.017,0,0,1,9.73,32.687L3.4,34.333l1.7-6.156-.4-.633a16.667,16.667,0,0,1-2.56-8.883c0-14.85,18.147-22.276,28.648-11.78C41.254,17.267,33.9,35.38,18.912,35.38Z" transform="translate(1.467 1.354)" fill="#4caf50"/>
  <path id="Path_862" data-name="Path 862" d="M25.45,19.787l-.015.127c-.508-.253-2.984-1.464-3.445-1.631-1.035-.383-.743-.061-2.731,2.216-.3.329-.589.355-1.091.127a13.707,13.707,0,0,1-4.058-2.508,15.322,15.322,0,0,1-2.8-3.5c-.495-.855.54-.976,1.483-2.76a.928.928,0,0,0-.042-.885c-.127-.253-1.135-2.736-1.557-3.726-.405-.986-.822-.861-1.135-.861a2.514,2.514,0,0,0-2.31.581c-2.726,3-2.038,6.087.294,9.373,4.584,6,7.026,7.1,11.491,8.637a6.987,6.987,0,0,0,3.175.2c.969-.154,2.984-1.218,3.4-2.408a4.18,4.18,0,0,0,.3-2.407c-.125-.228-.456-.355-.963-.583Z" transform="translate(4.117 4.376)" fill="#fafafa"/>
</svg>
