<svg xmlns="http://www.w3.org/2000/svg" width="24" height="24" viewBox="0 0 24 24">
  <g id="global-edit" transform="translate(-748 -188)">
    <path id="Vector" d="M0,0H24V24H0Z" transform="translate(772 212) rotate(180)" fill="none" opacity="0"/>
    <g id="Group">
      <path id="Vector-2" data-name="Vector" d="M4.74.671.59,4.821a1.512,1.512,0,0,0-.35.69L.01,7.1a.744.744,0,0,0,.89.89l1.59-.23a1.421,1.421,0,0,0,.69-.35l4.15-4.15a1.6,1.6,0,0,0,0-2.6A1.594,1.594,0,0,0,4.74.671Z" transform="translate(761.99 201.999)"/>
      <path id="Vector-3" data-name="Vector" d="M0,0A3.761,3.761,0,0,0,2.6,2.6" transform="translate(766.14 203.26)"/>
    </g>
    <path id="Vector-4" data-name="Vector" d="M.02,0C.02.03,0,.07,0,.1A9.494,9.494,0,0,0,4.26,4.36c.03,0,.07-.02.1-.02A28.7,28.7,0,0,1,3.57.8,30.393,30.393,0,0,1,.02,0Z" transform="translate(750.01 202.63)" opacity="0.4"/>
    <path id="Vector-5" data-name="Vector" d="M4.49,4.49A9.5,9.5,0,0,0,0,0,28.558,28.558,0,0,1,.86,3.63,26.949,26.949,0,0,1,4.49,4.49Z" transform="translate(762.58 189.94)" opacity="0.4"/>
    <path id="Vector-6" data-name="Vector" d="M0,4.41a29.117,29.117,0,0,1,3.64-.86A30.491,30.491,0,0,1,4.43.02C4.4.02,4.36,0,4.33,0A9.54,9.54,0,0,0,0,4.41Z" transform="translate(749.93 190.02)" opacity="0.4"/>
    <path id="Vector-7" data-name="Vector" d="M6.64,4.37A27.251,27.251,0,0,0,5.67.51,1.327,1.327,0,0,1,5.64.3,9.83,9.83,0,0,0,3.32,0,9.416,9.416,0,0,0,.99.3,1.646,1.646,0,0,1,.97.51,28.681,28.681,0,0,0,0,4.37,30.708,30.708,0,0,1,6.64,4.37Z" transform="translate(755.18 188.99)" opacity="0.4"/>
    <path id="Vector-8" data-name="Vector" d="M4.37,0A26.914,26.914,0,0,0,.51.97,1.327,1.327,0,0,1,.3,1,9.83,9.83,0,0,0,0,3.32,9.416,9.416,0,0,0,.3,5.65a1.646,1.646,0,0,1,.21.02,28.308,28.308,0,0,0,3.86.97A30.708,30.708,0,0,1,4.37,0Z" transform="translate(748.99 195.18)" opacity="0.4"/>
    <path id="Vector-9" data-name="Vector" d="M4.07,1A.818.818,0,0,1,3.86.97,28.681,28.681,0,0,0,0,0,29.4,29.4,0,0,1,0,6.63a27.251,27.251,0,0,0,3.86-.97,1.361,1.361,0,0,1,.21-.02,9.914,9.914,0,0,0,.3-2.33A9.38,9.38,0,0,0,4.07,1Z" transform="translate(763.63 195.18)" opacity="0.4"/>
    <path id="Vector-10" data-name="Vector" d="M0,0A26.914,26.914,0,0,0,.97,3.86a1.361,1.361,0,0,1,.02.21,9.914,9.914,0,0,0,2.33.3,9.336,9.336,0,0,0,2.32-.3,1.766,1.766,0,0,1,.03-.21A28.307,28.307,0,0,0,6.64,0,30.663,30.663,0,0,1,3.32.21C2.21.2,1.1.12,0,0Z" transform="translate(755.18 203.64)" opacity="0.4"/>
    <path id="Vector-11" data-name="Vector" d="M.225.225a28.2,28.2,0,0,0,0,7.11,28.2,28.2,0,0,0,7.11,0,28.2,28.2,0,0,0,0-7.11A28.2,28.2,0,0,0,.225.225Z" transform="translate(754.725 194.725)" opacity="0.4"/>
  </g>
</svg>
