<svg id="footer_logo" xmlns="http://www.w3.org/2000/svg" width="204.831" height="65.262" viewBox="0 0 204.831 65.262">
  <g id="Group_3" data-name="Group 3" transform="translate(0 0)">
    <path id="Path_1" data-name="Path 1" d="M149.755,41.46V30.611a1.4,1.4,0,0,0-.629-1.254c-.712-.462-16.382-13.387-16.382-13.387l-1.254,2.018,15.9,12.894V41.46l2.376.108V41.46Z" transform="translate(-90.977 -11.05)" fill="#fff"/>
    <path id="Path_2" data-name="Path 2" d="M3.153,41.467V30.618a1.4,1.4,0,0,1,.629-1.254C4.49,28.9,20.167,15.98,20.167,15.98L21.421,18,5.525,30.889V41.467l-2.375.108v-.108Z" transform="translate(-2.179 -11.056)" fill="#fff"/>
    <circle id="Ellipse_1" data-name="Ellipse 1" cx="3.768" cy="3.768" r="3.768" transform="translate(17.467 0)" fill="#61c5cb"/>
    <path id="Path_3" data-name="Path 3" d="M4.582,115.934V96.579a2.321,2.321,0,0,0-2.237-2.126C.327,94.453,0,96.034,0,97.069v21.592a2.292,2.292,0,0,0,2.289,1.963h9.98v7.906s.6,2.018,1.907,2.07a2.223,2.223,0,0,0,2.181-.764c.872-.709,10.633-9.1,10.633-9.1H57.742a2.282,2.282,0,0,0,2.07-2.508V96.3a1.913,1.913,0,0,0-2.126-1.855,2.261,2.261,0,0,0-2.453,2.508v19.029H26.171a2.867,2.867,0,0,0-1.417.545c-.434.438-7.468,6.6-7.468,6.6s-.327.653-.327-2.237v-2.508a2.385,2.385,0,0,0-2.508-2.4c-2.508,0-9.869-.055-9.869-.055Z" transform="translate(0 -65.349)" fill="#61c5cb"/>
    <circle id="Ellipse_2" data-name="Ellipse 2" cx="3.768" cy="3.768" r="3.768" transform="translate(34.745 0)" fill="#61c5cb"/>
    <path id="Path_4" data-name="Path 4" d="M73.723,72.138l-2.936,3.417a7.61,7.61,0,0,0-4.726-2.4c-2.909-.256-4.508,1.054-6.433,3.272S50.575,88.714,47.7,89.839,40.469,91.475,34.8,87.4l2.653-3.343s5.925,5.38,9.85.508,10.032-13.449,13.7-14.8S68.735,68.139,73.723,72.138Z" transform="translate(-24.078 -47.653)" fill="#61c5cb"/>
    <path id="Path_5" data-name="Path 5" d="M50.661,79.752,47.715,83.4s-.29-.884-4.871-1.824-5.888-3.266-5.925-6.39,2.764-6.2,6.689-6.316,8,2.064,8.359,2.717l-2.289,3.525s-4.908-3.888-7.924-1.165c-1.272,1.272.2,3.235,3.029,3.525s5.3,1.427,5.879,2.277Z" transform="translate(-25.544 -47.647)" fill="#61c5cb"/>
    <path id="Path_6" data-name="Path 6" d="M105.265,103.54l-3.925,4.582a9.969,9.969,0,0,0,8.689,6.51c6.908.653,9.887-3.673,9.887-3.673l-2.979-2.909a6.987,6.987,0,0,1-6.942,2.289c-4.652-.872-4.726-6.8-4.726-6.8Z" transform="translate(-70.117 -71.639)" fill="#61c5cb"/>
    <g id="Group_1" data-name="Group 1" transform="translate(67.007 36.455)">
      <path id="Path_7" data-name="Path 7" d="M221.344,135.719a13.735,13.735,0,0,1-3.716-.478l.277-2.209a9.759,9.759,0,0,0,3.565.678c1.96,0,3.666-.8,3.666-2.887,0-3.817-7.656-2.311-7.656-7.709,0-2.785,2.107-4.794,5.925-4.794a14.018,14.018,0,0,1,3.063.327l-.277,2.033a10.178,10.178,0,0,0-2.912-.453c-2.311,0-3.414,1.054-3.414,2.637,0,3.639,7.758,2.335,7.758,7.656,0,3.038-2.486,5.2-6.276,5.2Z" transform="translate(-217.48 -118.32)" fill="#61c5cb" stroke="#61c5cb" stroke-miterlimit="10" stroke-width="2"/>
      <path id="Path_8" data-name="Path 8" d="M275.394,136.006l-1.43-9.816c-.25-1.833-.425-3.287-.527-4.292h-.049c-.2.829-.478,1.96-.878,3.189L268.9,136.006h-2.462L263,125.789a36.438,36.438,0,0,1-1.078-3.891h-.049c-.074,1.4-.225,2.838-.453,4.492l-1.155,9.616H257.9l2.486-16.946H263.2l3.589,10.694c.3.853.678,2.209.98,3.365h.025c.3-1.18.6-2.234.931-3.214l3.666-10.845h2.862l2.56,16.946H275.4Z" transform="translate(-245.446 -118.832)" fill="#61c5cb" stroke="#61c5cb" stroke-miterlimit="10" stroke-width="2"/>
      <path id="Path_9" data-name="Path 9" d="M339.2,136.006l-1.4-3.965h-7.207l-1.4,3.965h-2.36l6.15-16.946h2.61l6.2,16.946H339.2Zm-4.267-12.152c-.3-.829-.527-1.581-.727-2.311h-.049c-.2.727-.425,1.482-.7,2.258l-2.286,6.4h6.027l-2.258-6.353Z" transform="translate(-293.132 -118.832)" fill="#61c5cb" stroke="#61c5cb" stroke-miterlimit="10" stroke-width="2"/>
      <path id="Path_10" data-name="Path 10" d="M391.2,135.778l-5.549-7.582h-.3v7.582H383.04V118.832c1.155-.077,2.385-.1,4.243-.1,3.34,0,5.749,1.18,5.749,4.418,0,2.887-2.286,4.569-4.97,4.769.5.6,1.029,1.254,1.457,1.809l4.618,6.051Zm-4.317-15.162c-.576,0-1.078.025-1.531.049v5.774c.253.025.755.049,1.43.049,2.434,0,3.842-1.229,3.842-3.038,0-2.033-1.282-2.838-3.74-2.838Z" transform="translate(-332.03 -118.604)" fill="#61c5cb" stroke="#61c5cb" stroke-miterlimit="10" stroke-width="2"/>
      <path id="Path_11" data-name="Path 11" d="M427.372,120.992v15.014h-2.311V120.992H420.19V119.06h12.075v1.932h-4.9Z" transform="translate(-357.734 -118.832)" fill="#61c5cb" stroke="#61c5cb" stroke-miterlimit="10" stroke-width="2"/>
      <path id="Path_12" data-name="Path 12" d="M492.116,135.867c-5.447,0-7.706-3.466-7.706-8.26,0-5.173,2.56-9.037,8.285-9.037a14.278,14.278,0,0,1,3.891.527l-.376,2.107a11.905,11.905,0,0,0-3.765-.653c-3.867,0-5.524,2.961-5.524,6.677,0,4.169,1.809,6.578,5.749,6.578a9.073,9.073,0,0,0,3.716-.853l.376,2.009a12.546,12.546,0,0,1-4.643.9Z" transform="translate(-402.167 -118.493)" fill="#fff" stroke="#fff" stroke-miterlimit="10" stroke-width="2"/>
      <path id="Path_13" data-name="Path 13" d="M540.377,136.006l-1.4-3.965h-7.207l-1.4,3.965H528l6.15-16.946h2.61l6.2,16.946Zm-4.267-12.152c-.3-.829-.527-1.581-.727-2.311h-.049c-.2.727-.425,1.482-.7,2.258l-2.286,6.4h6.027l-2.258-6.353Z" transform="translate(-432.327 -118.832)" fill="#fff" stroke="#fff" stroke-miterlimit="10" stroke-width="2"/>
      <path id="Path_14" data-name="Path 14" d="M592.382,135.778l-5.549-7.582h-.3v7.582H584.22V118.832c1.155-.077,2.385-.1,4.243-.1,3.34,0,5.749,1.18,5.749,4.418,0,2.887-2.286,4.569-4.97,4.769.5.6,1.029,1.254,1.457,1.809l4.619,6.051Zm-4.317-15.162c-.576,0-1.078.025-1.531.049v5.774c.253.025.755.049,1.43.049,2.434,0,3.842-1.229,3.842-3.038,0-2.033-1.282-2.838-3.74-2.838Z" transform="translate(-471.225 -118.604)" fill="#fff" stroke="#fff" stroke-miterlimit="10" stroke-width="2"/>
      <path id="Path_15" data-name="Path 15" d="M630.18,136.006V119.06h8.71v1.907h-6.4v5.373h6.1V128.2h-6.1v5.876h6.4v1.932Z" transform="translate(-503.025 -118.832)" fill="#fff" stroke="#fff" stroke-miterlimit="10" stroke-width="2"/>
    </g>
    <g id="Group_2" data-name="Group 2" transform="translate(66.129 7.678)">
      <path id="Path_16" data-name="Path 16" d="M214.63,62.642l.271-1.876a7.1,7.1,0,0,0,2.468.419c2.049,0,3.284-.989,3.284-4.221V45.04h2.271v9.8h2.717v1.8h-2.717v.123c0,3.506-1.285,6.224-5.728,6.224a10.237,10.237,0,0,1-2.567-.345Z" transform="translate(-214.63 -38.841)" fill="#fff" stroke="#fff" stroke-miterlimit="10" stroke-width="2"/>
      <path id="Path_17" data-name="Path 17" d="M248.75,76.85h3.21v1.8h-3.21v-1.8Z" transform="translate(-238.237 -60.85)" fill="#fff" stroke="#fff" stroke-miterlimit="10" stroke-width="2"/>
      <path id="Path_18" data-name="Path 18" d="M257.75,76.85h3.21v1.8h-3.21Z" transform="translate(-244.464 -60.85)" fill="#fff" stroke="#fff" stroke-miterlimit="10" stroke-width="2"/>
      <path id="Path_19" data-name="Path 19" d="M266.75,76.85h3.21v1.8h-3.21Z" transform="translate(-250.691 -60.85)" fill="#fff" stroke="#fff" stroke-miterlimit="10" stroke-width="2"/>
      <path id="Path_20" data-name="Path 20" d="M275.75,76.85h3.21v1.8h-3.21Z" transform="translate(-256.919 -60.85)" fill="#fff" stroke="#fff" stroke-miterlimit="10" stroke-width="2"/>
      <path id="Path_21" data-name="Path 21" d="M284.75,76.85h3.21v1.8h-3.21Z" transform="translate(-263.146 -60.85)" fill="#fff" stroke="#fff" stroke-miterlimit="10" stroke-width="2"/>
      <path id="Path_22" data-name="Path 22" d="M293.75,76.85h3.21v1.8h-3.21Z" transform="translate(-269.373 -60.85)" fill="#fff" stroke="#fff" stroke-miterlimit="10" stroke-width="2"/>
      <path id="Path_23" data-name="Path 23" d="M302.75,76.85h3.21v1.8h-3.21Z" transform="translate(-275.6 -60.85)" fill="#fff" stroke="#fff" stroke-miterlimit="10" stroke-width="2"/>
      <path id="Path_24" data-name="Path 24" d="M311.75,54.841h4.964v-9.8h2.271v9.8H321.7v1.8H311.75Zm2.1,6.815a1.322,1.322,0,1,1,1.309-1.334A1.322,1.322,0,0,1,313.848,61.656Zm3.654,0a1.322,1.322,0,1,1,0-2.644,1.265,1.265,0,0,1,1.285,1.309A1.3,1.3,0,0,1,317.5,61.656Z" transform="translate(-281.827 -38.841)" fill="#fff" stroke="#fff" stroke-miterlimit="10" stroke-width="2"/>
      <path id="Path_25" data-name="Path 25" d="M342.736,40.92h7.925c-.074-4.84-2.148-7.21-6.47-8.445V30.8l9.357-5.876v2.3l-6.717,4.122c3.851,1.581,6.073,4.32,6.073,10.124v1.26H342.73v-1.8Z" transform="translate(-303.262 -24.92)" fill="#fff" stroke="#fff" stroke-miterlimit="10" stroke-width="2"/>
      <path id="Path_26" data-name="Path 26" d="M415.387,45.6c-6.248,0-8.667-2.493-8.667-7.185a10.882,10.882,0,0,1,.813-4.1l2.419-.419a10.6,10.6,0,0,0-.937,4.246c0,3.753,1.482,5.654,6.643,5.654h4.2V34h2.271V45.6h-6.741Zm-3.408-15.211a1.3,1.3,0,0,1,1.309-1.309,1.285,1.285,0,0,1,1.309,1.309,1.322,1.322,0,0,1-1.309,1.334A1.306,1.306,0,0,1,411.979,30.389Zm3.63,0a1.324,1.324,0,0,1,1.334-1.309,1.265,1.265,0,0,1,1.285,1.309,1.3,1.3,0,0,1-1.285,1.334A1.327,1.327,0,0,1,415.609,30.389Z" transform="translate(-347.536 -27.798)" fill="#61c5cb" stroke="#61c5cb" stroke-miterlimit="10" stroke-width="2"/>
      <path id="Path_27" data-name="Path 27" d="M453.33,62.642l.271-1.876a7.1,7.1,0,0,0,2.468.419c2.049,0,3.284-.989,3.284-4.221V45.04h2.271V56.77c0,3.506-1.285,6.224-5.728,6.224a10.237,10.237,0,0,1-2.567-.345Z" transform="translate(-379.785 -38.841)" fill="#61c5cb" stroke="#61c5cb" stroke-miterlimit="10" stroke-width="2"/>
      <path id="Path_28" data-name="Path 28" d="M494.36,26.2h2.271V41.806h2.718v1.8H494.36Z" transform="translate(-408.173 -25.806)" fill="#61c5cb" stroke="#61c5cb" stroke-miterlimit="10" stroke-width="2"/>
      <path id="Path_29" data-name="Path 29" d="M509.75,76.85h3.21v1.8H509.75v-1.8Z" transform="translate(-418.822 -60.85)" fill="#61c5cb" stroke="#61c5cb" stroke-miterlimit="10" stroke-width="2"/>
      <path id="Path_30" data-name="Path 30" d="M518.75,76.85h3.21v1.8h-3.21Z" transform="translate(-425.049 -60.85)" fill="#61c5cb" stroke="#61c5cb" stroke-miterlimit="10" stroke-width="2"/>
      <path id="Path_31" data-name="Path 31" d="M527.75,76.85h3.21v1.8h-3.21Z" transform="translate(-431.276 -60.85)" fill="#61c5cb" stroke="#61c5cb" stroke-miterlimit="10" stroke-width="2"/>
      <path id="Path_32" data-name="Path 32" d="M536.75,76.85h3.21v1.8h-3.21Z" transform="translate(-437.503 -60.85)" fill="#61c5cb" stroke="#61c5cb" stroke-miterlimit="10" stroke-width="2"/>
      <path id="Path_33" data-name="Path 33" d="M549.4,53.929a3.289,3.289,0,0,1-3.284,2.1h-.37v-1.8h.468c1.26,0,2.172-.715,2.172-3.629,0-3.629,2.1-6.446,6.023-6.446,3.7,0,5.432,2.074,5.432,5.851v4.221h2.468v1.8h-7.777c-2.841,0-4.369-.764-5.136-2.1Zm8.223-3.556c0-3.186-1.186-4.421-3.383-4.421s-3.58,1.655-3.58,4.421c0,2.616,1.186,3.851,4.172,3.851h2.791Z" transform="translate(-443.73 -38.225)" fill="#61c5cb" stroke="#61c5cb" stroke-miterlimit="10" stroke-width="2"/>
      <path id="Path_34" data-name="Path 34" d="M598.743,52.952h.863c1.753,0,2.542-.789,2.542-3.457V44.63h2.271v5.062c0,2.123.493,3.432,2.32,3.432s2.3-1.334,2.3-3.432V43.644h2.2v5.95c0,2.567.641,3.358,3.26,3.358h1.137a34.378,34.378,0,0,0,.2-3.432,27.4,27.4,0,0,0-.813-6.815l2.221-.394a28.033,28.033,0,0,1,.863,7.012,39.959,39.959,0,0,1-.394,5.432h-3.679c-2.345,0-3.63-.592-4.147-1.975a3.479,3.479,0,0,1-3.482,2.172c-1.975,0-3.112-.887-3.482-2.172-.444,1.236-1.433,1.975-3.334,1.975h-.838v-1.8Z" transform="translate(-480.393 -36.952)" fill="#61c5cb" stroke="#61c5cb" stroke-miterlimit="10" stroke-width="2"/>
    </g>
  </g>
</svg>
