<svg id="whatsapp" xmlns="http://www.w3.org/2000/svg" width="23" height="23" viewBox="0 0 23 23">
  <path id="BG_164" data-name="BG 164" d="M0,0H23V23H0Z" fill="none" opacity="0.58"/>
  <path id="Vector" d="M19.153,9.018A9.586,9.586,0,1,0,1.28,14.375L.428,17.548a.955.955,0,0,0,1.179,1.169l3.124-.862A9.539,9.539,0,0,0,9.58,19.167,9.731,9.731,0,0,0,19.153,9.018Zm-4.887,4.13a2.287,2.287,0,0,1-.326.489,2.184,2.184,0,0,1-.786.565,2.345,2.345,0,0,1-.939.182,3.9,3.9,0,0,1-1.562-.355A8.777,8.777,0,0,1,9,13.082,13.848,13.848,0,0,1,7.433,11.74a13.705,13.705,0,0,1-1.342-1.572A8.431,8.431,0,0,1,5.152,8.53a4.058,4.058,0,0,1-.345-1.572,2.5,2.5,0,0,1,.172-.93,2.14,2.14,0,0,1,.556-.8,1.385,1.385,0,0,1,1-.45.937.937,0,0,1,.393.086.794.794,0,0,1,.326.268L8.363,6.7a1.547,1.547,0,0,1,.192.335.7.7,0,0,1,.067.3.687.687,0,0,1-.105.345,1.686,1.686,0,0,1-.268.345L7.883,8.4a.246.246,0,0,0-.077.192.481.481,0,0,0,.019.115.661.661,0,0,1,.038.1,3.841,3.841,0,0,0,.45.613c.22.249.45.508.7.757s.508.489.767.709a3.68,3.68,0,0,0,.623.441c.029.01.058.029.086.038a.314.314,0,0,0,.326-.067l.364-.364a1.54,1.54,0,0,1,.345-.268.66.66,0,0,1,.345-.105.7.7,0,0,1,.3.067,1.744,1.744,0,0,1,.335.192l1.591,1.131a.809.809,0,0,1,.268.307,1,1,0,0,1,.077.374C14.381,12.794,14.343,12.976,14.266,13.149Z" transform="translate(1.911 1.916)" fill="#2cb742"/>
  <path id="Vector-2" data-name="Vector" d="M0,0H23V23H0Z" fill="none" opacity="0"/>
</svg>
