<svg id="moon" xmlns="http://www.w3.org/2000/svg" width="20.1" height="20.1" viewBox="0 0 20.1 20.1">
  <path id="Vector" d="M16.1,11.666c-.134-.226-.511-.578-1.449-.41a7.085,7.085,0,0,1-1.574.109A7.043,7.043,0,0,1,8.127,9,6.757,6.757,0,0,1,6.921,1.75C7.29.9,7.03.46,6.846.276S6.2-.185,5.313.184A8.641,8.641,0,0,0,.02,8.735a8.773,8.773,0,0,0,5.9,7.529,8.376,8.376,0,0,0,2.42.461c.134.008.268.017.4.017a8.8,8.8,0,0,0,7.094-3.576C16.393,12.386,16.242,11.892,16.1,11.666Z" transform="translate(1.931 1.675)" fill="#292d32"/>
  <path id="Vector-2" data-name="Vector" d="M0,0H20.1V20.1H0Z" transform="translate(20.1 20.1) rotate(180)" fill="none" opacity="0"/>
</svg>
