<svg id="notification" xmlns="http://www.w3.org/2000/svg" width="20.1" height="20.1" viewBox="0 0 20.1 20.1">
  <path id="Vector" d="M12.587,10.46,11.75,9.07a3.111,3.111,0,0,1-.335-1.239V5.712A4.949,4.949,0,0,0,8.592,1.248,2.451,2.451,0,0,0,6.431,0,2.48,2.48,0,0,0,4.262,1.273,4.965,4.965,0,0,0,1.5,5.712V7.831a3.037,3.037,0,0,1-.335,1.231l-.846,1.4a1.957,1.957,0,0,0,1.1,2.956,15.663,15.663,0,0,0,5.042.821,15.887,15.887,0,0,0,5.042-.812,2.02,2.02,0,0,0,1.089-2.965Z" transform="translate(3.61 1.675)" fill="#fff"/>
  <path id="Vector-2" data-name="Vector" d="M4.732.008a2.525,2.525,0,0,1-2.37,1.667A2.483,2.483,0,0,1,.586.93,2.312,2.312,0,0,1,0,0C.109.017.218.025.335.042.528.067.729.092.93.109c.477.042.963.067,1.449.067S3.333.151,3.8.109c.176-.017.352-.025.519-.05Z" transform="translate(7.688 16.75)" fill="#fff"/>
  <path id="Vector-3" data-name="Vector" d="M0,0H20.1V20.1H0Z" transform="translate(20.1 20.1) rotate(180)" fill="none" opacity="0"/>
</svg>
