<svg width="60" height="60" viewBox="0 0 60 60" fill="none" xmlns="http://www.w3.org/2000/svg"><g id="Layer 1"><g id="rotate" style=" transform-origin: center; transform-box: fill-box; animation: spin 2s linear infinite;"><path id="Path 795" d="M43.75 53.174C39.6421 55.5424 34.9832 56.7881 30.2414 56.786C25.4996 56.7839 20.8419 55.5339 16.7361 53.1618C12.6303 50.7897 9.22098 47.3789 6.8507 43.272C4.48042 39.1651 3.2326 34.5068 3.2326 29.765C3.2326 25.0232 4.48042 20.3649 6.8507 16.258C9.22098 12.1512 12.6303 8.74033 16.7361 6.3682C20.8419 3.99606 25.4996 2.74615 30.2414 2.74401C34.9832 2.74187 39.6421 3.98758 43.75 6.356C39.6405 8.72813 36.2279 12.1403 33.8552 16.2495C31.4826 20.3586 30.2334 25.02 30.2334 29.765C30.2334 34.51 31.4826 39.1714 33.8552 43.2805C36.2279 47.3897 39.6405 50.8019 43.75 53.174V53.174Z" fill="#61C5CB"/><path id="Path 796" d="M57.301 16.964C55.0085 12.123 51.4591 7.9858 47.0229 4.9839C42.5868 1.982 37.4264 0.225376 32.0801 -0.102752C26.7338 -0.43088 21.3974 0.681509 16.6274 3.11839C11.8575 5.55527 7.82874 9.22737 4.96144 13.7517C2.09415 18.276 0.493321 23.4868 0.325933 28.8406C0.158545 34.1943 1.43073 39.4949 4.00979 44.1895C6.58885 48.8841 10.3803 52.8007 14.9887 55.5308C19.5971 58.2609 24.8536 59.7045 30.21 59.711H30.573C36.1358 59.6415 41.5704 58.0312 46.273 55.059C46.5971 54.8532 46.8775 54.5856 47.0982 54.2715C47.3189 53.9573 47.4755 53.6028 47.5592 53.2281C47.6428 52.8534 47.6519 52.4659 47.5858 52.0877C47.5197 51.7096 47.3798 51.3481 47.174 51.024C46.9682 50.6999 46.7006 50.4195 46.3865 50.1988C46.0723 49.9781 45.7178 49.8215 45.3431 49.7378C44.9684 49.6542 44.5809 49.6451 44.2028 49.7112C43.8246 49.7773 43.4631 49.9172 43.139 50.123C38.5269 53.0456 33.0586 54.3143 27.6308 53.721C22.203 53.1277 17.1379 50.7077 13.2661 46.8577C9.39432 43.0078 6.94562 37.9565 6.32158 32.5322C5.69754 27.1078 6.93519 21.6324 9.8316 17.0039C12.728 12.3753 17.1112 8.86826 22.2625 7.05791C27.4137 5.24755 33.0273 5.24132 38.1825 7.04022C43.3378 8.83913 47.7288 12.3364 50.6355 16.9585C53.5422 21.5807 54.792 27.0533 54.18 32.479C54.1071 33.2435 54.3378 34.006 54.8224 34.6017C55.307 35.1975 56.0065 35.5787 56.7698 35.663C57.5331 35.7473 58.2989 35.528 58.9018 35.0523C59.5047 34.5767 59.8963 33.883 59.992 33.121C60.6083 27.5901 59.6767 21.9966 57.301 16.964V16.964Z" fill="black"/></g><path id="Path 797" d="M18.807 26.844C18.0318 26.844 17.2883 27.152 16.7401 27.7001C16.192 28.2483 15.884 28.9918 15.884 29.767C15.884 30.5422 16.192 31.2857 16.7401 31.8339C17.2883 32.382 18.0318 32.69 18.807 32.69H41.665C42.4402 32.69 43.1837 32.382 43.7319 31.8339C44.28 31.2857 44.588 30.5422 44.588 29.767C44.588 28.9918 44.28 28.2483 43.7319 27.7001C43.1837 27.152 42.4402 26.844 41.665 26.844H18.807Z" fill="black"/></g><style> @keyframes spin { 0% { transform: rotate(0deg); } 100% { transform: rotate(360deg); } }</style></svg>