<svg id="vuesax_outline_call-calling" data-name="vuesax/outline/call-calling" xmlns="http://www.w3.org/2000/svg" width="17.828" height="17.828" viewBox="0 0 17.828 17.828">
  <g id="call-calling">
    <path id="Vector" d="M12.034,15.971A6.8,6.8,0,0,1,9.4,15.384a13.947,13.947,0,0,1-2.667-1.53,23.187,23.187,0,0,1-2.5-2.132,22.193,22.193,0,0,1-2.132-2.5A13.862,13.862,0,0,1,.579,6.581,6.878,6.878,0,0,1,0,3.93,4.476,4.476,0,0,1,.3,2.288,3.968,3.968,0,0,1,1.3.847,2.7,2.7,0,0,1,3.224,0a2.009,2.009,0,0,1,.839.186,1.7,1.7,0,0,1,.713.6L6.5,3.216a2.878,2.878,0,0,1,.357.631A1.669,1.669,0,0,1,7,4.509a1.576,1.576,0,0,1-.238.817,2.971,2.971,0,0,1-.5.631l-.505.527a.362.362,0,0,0,.022.052,5.712,5.712,0,0,0,.609.825c.364.416.706.795,1.047,1.144.438.431.8.773,1.144,1.055a4.838,4.838,0,0,0,.862.617l-.015.037.542-.535a2.774,2.774,0,0,1,.669-.513,1.568,1.568,0,0,1,1.449-.082,3.382,3.382,0,0,1,.624.349l2.466,1.753a1.6,1.6,0,0,1,.594.706,2.15,2.15,0,0,1,.163.8,2.477,2.477,0,0,1-.238,1.047,3.46,3.46,0,0,1-.594.891,3.81,3.81,0,0,1-1.419,1.018A4.386,4.386,0,0,1,12.034,15.971ZM3.224,1.114a1.628,1.628,0,0,0-1.151.535A2.85,2.85,0,0,0,1.345,2.7a3.25,3.25,0,0,0-.23,1.233A5.727,5.727,0,0,0,1.6,6.143,12.4,12.4,0,0,0,3,8.565a20.551,20.551,0,0,0,2.013,2.362,20.915,20.915,0,0,0,2.37,2.02,12.069,12.069,0,0,0,2.444,1.4,4.43,4.43,0,0,0,3.439.26,2.742,2.742,0,0,0,1.018-.735,2.409,2.409,0,0,0,.416-.624,1.316,1.316,0,0,0,.134-.572.887.887,0,0,0-.082-.371.562.562,0,0,0-.208-.223l-2.466-1.753a2.129,2.129,0,0,0-.409-.23.391.391,0,0,0-.483.022,1.693,1.693,0,0,0-.431.334l-.565.557a1.059,1.059,0,0,1-1.077.223l-.2-.089a6.332,6.332,0,0,1-1.055-.75c-.357-.3-.743-.661-1.211-1.122-.364-.371-.728-.765-1.107-1.2a6.338,6.338,0,0,1-.758-1.047L4.695,6.8a1.387,1.387,0,0,1-.059-.371.953.953,0,0,1,.282-.691l.557-.579a2.151,2.151,0,0,0,.334-.416.476.476,0,0,0,.082-.253.69.69,0,0,0-.059-.238,2.131,2.131,0,0,0-.238-.394L3.87,1.426A.685.685,0,0,0,3.6,1.2.93.93,0,0,0,3.224,1.114Zm6.21,9.107-.119.505.2-.52A.091.091,0,0,0,9.434,10.221Z" transform="translate(0.929 0.929)"/>
    <path id="Vector-2" data-name="Vector" d="M3.157,3.714A.561.561,0,0,1,2.6,3.157a2.478,2.478,0,0,0-.713-1.3,2.008,2.008,0,0,0-1.33-.743A.561.561,0,0,1,0,.557.561.561,0,0,1,.557,0,3.037,3.037,0,0,1,2.7,1.092,3.436,3.436,0,0,1,3.714,3.157.561.561,0,0,1,3.157,3.714Z" transform="translate(10.585 3.528)"/>
    <path id="Vector-3" data-name="Vector" d="M5.757,6.314A.561.561,0,0,1,5.2,5.757,4.644,4.644,0,0,0,.557,1.114.561.561,0,0,1,0,.557.561.561,0,0,1,.557,0,5.767,5.767,0,0,1,6.314,5.757.561.561,0,0,1,5.757,6.314Z" transform="translate(10.585 0.929)"/>
    <path id="Vector-4" data-name="Vector" d="M0,0H17.828V17.828H0Z" fill="none" opacity="0"/>
  </g>
</svg>
