<svg width="46" height="66" viewBox="0 0 46 66" fill="none" xmlns="http://www.w3.org/2000/svg"><g id="Layer 2"><g id="Layer 1"><path id="Path 791" d="M42.795 27.239V54.815C42.7945 56.8343 41.9921 58.7707 40.5644 60.1987C39.1366 61.6266 37.2003 62.4292 35.181 62.43H10.82C8.8007 62.4295 6.86425 61.6271 5.43631 60.1994C4.00836 58.7716 3.20578 56.8353 3.20499 54.816V27.239C8.94789 31.4453 15.8814 33.7129 23 33.7129C30.1186 33.7129 37.0521 31.4453 42.795 27.239Z" fill="#61C5CB"/><path id="Path 792" d="M42.795 23.892C41.9451 23.8925 41.1303 24.2304 40.5293 24.8313C39.9284 25.4322 39.5905 26.2471 39.59 27.097V54.815C39.59 55.9846 39.1254 57.1063 38.2983 57.9333C37.4713 58.7604 36.3496 59.225 35.18 59.225H10.821C9.6514 59.225 8.5297 58.7604 7.70267 57.9333C6.87563 57.1063 6.41101 55.9846 6.41101 54.815V27.097C6.41101 26.247 6.07334 25.4318 5.47228 24.8307C4.87123 24.2297 4.05603 23.892 3.20601 23.892C2.35599 23.892 1.54078 24.2297 0.93973 24.8307C0.338676 25.4318 0.00100708 26.247 0.00100708 27.097V54.815C0.00655801 57.6831 1.14844 60.4321 3.1766 62.4601C5.20475 64.4881 7.9539 65.6297 10.822 65.635H35.179C38.0473 65.6302 40.7967 64.4888 42.825 62.4607C44.8533 60.4326 45.995 57.6833 46 54.815V27.097C45.9995 26.2471 45.6616 25.4322 45.0607 24.8313C44.4598 24.2304 43.6449 23.8925 42.795 23.892V23.892Z" fill="black"/><path id="translate" style="transform-origin: center; transform-box: fill-box; animation: translateY 2s linear infinite;" d="M42.795 12.354H36.526C36.2199 8.97828 34.6625 5.83905 32.1598 3.55305C29.6571 1.26705 26.3901 -0.000457764 23.0005 -0.000457764C19.6109 -0.000457764 16.3439 1.26705 13.8412 3.55305C11.3385 5.83905 9.78112 8.97828 9.475 12.354H3.205C2.35498 12.354 1.53978 12.6917 0.938723 13.2927C0.337669 13.8938 0 14.709 0 15.559C0 16.409 0.337669 17.2242 0.938723 17.8253C1.53978 18.4263 2.35498 18.764 3.205 18.764H42.783C43.633 18.7656 44.4489 18.4294 45.051 17.8295C45.6532 17.2296 45.9924 16.415 45.994 15.565C45.9956 14.715 45.6594 13.8991 45.0595 13.297C44.4596 12.6948 43.645 12.3556 42.795 12.354ZM23 6.405C24.6894 6.40684 26.3239 7.00439 27.6162 8.09251C28.9084 9.18064 29.7756 10.6896 30.065 12.354H15.937C16.2264 10.69 17.0932 9.18124 18.385 8.09316C19.6769 7.00508 21.311 6.40731 23 6.405V6.405Z" fill="black"/><path id="rotate" style="transform-origin: center; transform-box: fill-box; animation: spin 2s linear infinite;" d="M15.555 49.11C16.1578 49.7098 16.9736 50.0465 17.824 50.0465C18.6744 50.0465 19.4902 49.7098 20.093 49.11L22.999 46.204L25.905 49.11C26.5088 49.7022 27.3219 50.0321 28.1676 50.0281C29.0133 50.024 29.8232 49.6862 30.4212 49.0882C31.0192 48.4902 31.357 47.6803 31.3611 46.8346C31.3651 45.9889 31.0352 45.1758 30.443 44.572L27.537 41.666L30.443 38.76C31.0352 38.1562 31.3651 37.3431 31.3611 36.4974C31.357 35.6517 31.0192 34.8418 30.4212 34.2438C29.8232 33.6458 29.0133 33.308 28.1676 33.3039C27.3219 33.2999 26.5088 33.6298 25.905 34.222L22.999 37.143L20.093 34.237C19.8013 33.9152 19.4473 33.6559 19.0524 33.475C18.6576 33.294 18.2301 33.1951 17.7959 33.1842C17.3616 33.1733 16.9297 33.2507 16.5263 33.4117C16.1229 33.5726 15.7563 33.8138 15.4488 34.1206C15.1414 34.4274 14.8994 34.7934 14.7375 35.1965C14.5757 35.5996 14.4974 36.0313 14.5073 36.4655C14.5172 36.8998 14.6152 37.3275 14.7953 37.7227C14.9754 38.118 15.2338 38.4726 15.555 38.765L18.461 41.671L15.555 44.577C14.9572 45.1783 14.6217 45.9917 14.6217 46.8395C14.6217 47.6874 14.9572 48.5007 15.555 49.102V49.11Z" fill="black"/></g></g><style> @keyframes spin { 0% { transform: rotate(0deg); } 100% { transform: rotate(360deg); } } @keyframes translateY { 0%, 100% { transform: translateY(0px); } 50% { transform: translateY(4px); } }</style></svg>