<svg id="vuesax_outline_eye" data-name="vuesax/outline/eye" xmlns="http://www.w3.org/2000/svg" width="20.1" height="20.1" viewBox="0 0 20.1 20.1">
  <g id="eye">
    <path id="Vector" d="M3.626,7.253A3.626,3.626,0,1,1,7.253,3.626,3.628,3.628,0,0,1,3.626,7.253Zm0-6A2.37,2.37,0,1,0,6,3.626,2.373,2.373,0,0,0,3.626,1.256Z" transform="translate(6.424 6.424)"/>
    <path id="Vector-2" data-name="Vector" d="M8.831,15.108c-3.149,0-6.122-1.842-8.166-5.042a5.073,5.073,0,0,1,0-5.025C2.718,1.842,5.691,0,8.831,0s6.114,1.842,8.157,5.042a5.073,5.073,0,0,1,0,5.025C14.945,13.266,11.972,15.108,8.831,15.108Zm0-13.852c-2.705,0-5.293,1.625-7.1,4.464a3.806,3.806,0,0,0,0,3.668c1.809,2.839,4.4,4.464,7.1,4.464s5.293-1.625,7.1-4.464a3.806,3.806,0,0,0,0-3.668C14.124,2.881,11.537,1.256,8.831,1.256Z" transform="translate(1.219 2.496)"/>
    <path id="Vector-3" data-name="Vector" d="M0,0H20.1V20.1H0Z" fill="none" opacity="0"/>
  </g>
</svg>
