<svg xmlns="http://www.w3.org/2000/svg" width="24" height="24" viewBox="0 0 24 24">
  <g id="vuesax_outline_hashtag" data-name="vuesax/outline/hashtag" transform="translate(-748 -188)">
    <g id="hashtag">
      <path id="Vector" d="M13.75,21.5h-6C2.32,21.5,0,19.18,0,13.75v-6C0,2.32,2.32,0,7.75,0h6c5.43,0,7.75,2.32,7.75,7.75v6C21.5,19.18,19.18,21.5,13.75,21.5Zm-6-20C3.14,1.5,1.5,3.14,1.5,7.75v6C1.5,18.36,3.14,20,7.75,20h6C18.36,20,20,18.36,20,13.75v-6c0-4.61-1.64-6.25-6.25-6.25Z" transform="translate(749.25 189.25)"/>
      <path id="Vector-2" data-name="Vector" d="M7.75,11.5h-4A3.751,3.751,0,0,1,0,7.75v-4A3.751,3.751,0,0,1,3.75,0h4A3.751,3.751,0,0,1,11.5,3.75v4A3.751,3.751,0,0,1,7.75,11.5Zm-4-10A2.253,2.253,0,0,0,1.5,3.75v4A2.253,2.253,0,0,0,3.75,10h4A2.253,2.253,0,0,0,10,7.75v-4A2.253,2.253,0,0,0,7.75,1.5Z" transform="translate(754.25 194.25)"/>
      <path id="Vector-3" data-name="Vector" d="M.75,11.5A.755.755,0,0,1,0,10.75V.75A.755.755,0,0,1,.75,0,.755.755,0,0,1,1.5.75v10A.755.755,0,0,1,.75,11.5Z" transform="translate(759.25 194.25)"/>
      <path id="Vector-4" data-name="Vector" d="M10.75,1.5H.75A.755.755,0,0,1,0,.75.755.755,0,0,1,.75,0h10a.755.755,0,0,1,.75.75A.755.755,0,0,1,10.75,1.5Z" transform="translate(754.25 199.25)"/>
      <path id="Vector-5" data-name="Vector" d="M0,0H24V24H0Z" transform="translate(748 188)" fill="none" opacity="0"/>
    </g>
  </g>
</svg>
