<svg xmlns="http://www.w3.org/2000/svg" width="24" height="24" viewBox="0 0 24 24">
  <g id="phone" transform="translate(-108 -380)">
    <g id="mobile">
      <path id="Vector" d="M11.75,21.5h-6C1.34,21.5,0,20.16,0,15.75v-10C0,1.34,1.34,0,5.75,0h6c4.41,0,5.75,1.34,5.75,5.75v10C17.5,20.16,16.16,21.5,11.75,21.5Zm-6-20c-3.58,0-4.25.68-4.25,4.25v10c0,3.57.67,4.25,4.25,4.25h6c3.58,0,4.25-.68,4.25-4.25v-10c0-3.57-.67-4.25-4.25-4.25Z" transform="translate(111.25 381.25)"/>
      <path id="Vector-2" data-name="Vector" d="M4.75,1.5h-4A.755.755,0,0,1,0,.75.755.755,0,0,1,.75,0h4A.755.755,0,0,1,5.5.75.755.755,0,0,1,4.75,1.5Z" transform="translate(117.25 384.75)"/>
      <path id="Vector-3" data-name="Vector" d="M2.3,4.6A2.3,2.3,0,1,1,4.6,2.3,2.3,2.3,0,0,1,2.3,4.6Zm0-3.11a.8.8,0,1,0,.8.8A.8.8,0,0,0,2.3,1.49Z" transform="translate(117.7 395.26)"/>
      <path id="Vector-4" data-name="Vector" d="M0,0H24V24H0Z" transform="translate(108 380)" fill="none" opacity="0"/>
    </g>
  </g>
</svg>
