<svg id="whatsapp" xmlns="http://www.w3.org/2000/svg" width="24" height="24" viewBox="0 0 24 24">
  <path id="Vector" d="M0,0H24V24H0Z" fill="none"/>
  <path id="Vector-2" data-name="Vector" d="M.755,21.51a.749.749,0,0,1-.53-.22.76.76,0,0,1-.2-.73l1.26-4.71A10.72,10.72,0,1,1,5.6,20.19L.955,21.48A.693.693,0,0,1,.755,21.51ZM5.7,18.64a.861.861,0,0,1,.38.1,9.275,9.275,0,1,0-3.33-3.36.758.758,0,0,1,.08.57l-1,3.74,3.68-1.02A.628.628,0,0,1,5.7,18.64Z" transform="translate(1.245 1.24)"/>
  <path id="Vector-3" data-name="Vector" d="M8.5,11.534a4.831,4.831,0,0,1-1.93-.43,9.4,9.4,0,0,1-1.87-1.08,15.046,15.046,0,0,1-1.73-1.48,15.945,15.945,0,0,1-1.48-1.73A9.934,9.934,0,0,1,.42,4.954,4.949,4.949,0,0,1,0,3.024a3.468,3.468,0,0,1,.23-1.25A3.027,3.027,0,0,1,.99.674,2.06,2.06,0,0,1,3.28.164a1.439,1.439,0,0,1,.62.53l1.16,1.63a2.265,2.265,0,0,1,.28.5,1.614,1.614,0,0,1,.13.59,1.442,1.442,0,0,1-.21.75,2.634,2.634,0,0,1-.39.5l-.13.14a3.451,3.451,0,0,0,.24.3c.21.24.44.5.69.75s.5.48.75.69a3.06,3.06,0,0,0,.3.23l.14-.14a2.144,2.144,0,0,1,.54-.41,1.443,1.443,0,0,1,1.29-.07,2.189,2.189,0,0,1,.49.27L10.85,7.6a1.616,1.616,0,0,1,.53.63,1.819,1.819,0,0,1,.14.7,2.049,2.049,0,0,1-.2.87,3.39,3.39,0,0,1-.46.7,3.138,3.138,0,0,1-1.09.78A3.233,3.233,0,0,1,8.5,11.534ZM2.55,1.514a.693.693,0,0,0-.51.25,1.716,1.716,0,0,0-.41.58,1.766,1.766,0,0,0-.13.69,3.522,3.522,0,0,0,.3,1.35,8.183,8.183,0,0,0,.9,1.56,13.553,13.553,0,0,0,1.32,1.55,14.924,14.924,0,0,0,1.55,1.33,8.23,8.23,0,0,0,1.58.91,2.591,2.591,0,0,0,2.03.17,1.711,1.711,0,0,0,.56-.4,1.268,1.268,0,0,0,.22-.33.585.585,0,0,0,.05-.22.218.218,0,0,0-.03-.11L8.31,7.684a.808.808,0,0,0-.2-.11.725.725,0,0,0-.21.16l-.38.38a1.1,1.1,0,0,1-1.12.24l-.18-.08a4.21,4.21,0,0,1-.78-.55c-.28-.24-.55-.49-.84-.77s-.53-.56-.77-.84a5.473,5.473,0,0,1-.56-.77l-.11-.26a1.1,1.1,0,0,1-.04-.31,1.037,1.037,0,0,1,.29-.73l.38-.39a.856.856,0,0,0,.17-.21,1.059,1.059,0,0,0-.12-.2L2.67,1.594Z" transform="translate(6.24 6.226)"/>
  <path id="Vector-4" data-name="Vector" d="M0,0H24V24H0Z" fill="none" opacity="0"/>
</svg>
