<svg id="svgexport-7_22_" data-name="svgexport-7 (22)" xmlns="http://www.w3.org/2000/svg" width="24" height="24" viewBox="0 0 24 24">
  <circle id="Ellipse_6" data-name="Ellipse 6" cx="12" cy="12" r="12" fill="#3d9635"/>
  <g id="Group_63" data-name="Group 63" transform="translate(3.243 6.315)">
    <path id="Path_3" data-name="Path 3" d="M4.7,9c-.04.623-.091,1.725.377,1.837.569.059.255-1.085.46-1.293.039-.1.111-.1.117.026v.975a.452.452,0,0,0,.325.469c.151-.011.249-.006.307.16q.038.838.07,1.677s.347.117.364-.942a11.1,11.1,0,0,1-.032-1.261c0-.118.136-.128.232-.064.151.118.215.261.446.2.353-.112.562-.3.568-.607a2.933,2.933,0,0,0-.158-.868c.015-.053-.07-.186-.052-.24.063.112.157.1.179,0a.875.875,0,0,0-.3-.527c-.125-.123-.31-.1-.377.165a1.539,1.539,0,0,0,.289.931,1.027,1.027,0,0,1,.072.469.211.211,0,0,1-.288-.064S7.01,9.8,7.01,9.752A1.271,1.271,0,0,0,6.986,9,1.024,1.024,0,0,0,6.8,8.6c-.069-.09-.164-.09-.209,0a1.569,1.569,0,0,0,.023.991c.063.212.163.346.118.346-.039.123-.119.09-.176-.048a3.811,3.811,0,0,1-.1-.91c-.026-.24-.055-.753-.194-.884-.085-.128-.213-.064-.258.059a5.112,5.112,0,0,0,.014.692A8.3,8.3,0,0,1,6.2,9.959c.012.527-.27.226-.258-.037a2.686,2.686,0,0,0-.01-1.006c-.046-.138-.1-.17-.214-.143-.09-.011-.319.271-.383.74a4.213,4.213,0,0,0-.075.458c-.033.24-.174.41-.273-.038C4.9,9.608,4.845,8.81,4.7,9" transform="translate(-4.573 -7.737)" fill="#fff"/>
    <path id="Path_4" data-name="Path 4" d="M6.274,12.62c-.5.282-.991.538-1.485.8a1.574,1.574,0,0,1,1.175-1.07c.3.011.226.133.31.266" transform="translate(-4.602 -8.806)" fill="#fff"/>
    <path id="Path_5" data-name="Path 5" d="M8.4,8.028a.423.423,0,0,0-.095.032.316.316,0,0,0-.2.389c.143.979.234,1.725.377,2.7.025.118-.063.267-.172.256-.188-.144-.234-.437-.554-.421a.666.666,0,0,0-.527.559,1.6,1.6,0,0,0,0,.639.432.432,0,0,0,.527.151c.14-.064.257-.226.307-.186.031.064,0,.575-.661.963-.406.2-.727.255-.9-.118-.105-.234.008-1.118-.255-.915-.782,2.267,1.83,2.587,2.123.1.019-.069.075-.139.118-.122.02.011.033.037.038.09-.06,2.252-2.02,2.4-2.352,1.7a2.366,2.366,0,0,1-.118-.762.436.436,0,0,0-.08-.25c-.08-.063-.186.112-.21.416a3.036,3.036,0,0,0-.023.542c.1,1.789,2.627,1.022,3.04-.452a5.66,5.66,0,0,0,.068-1.409h.008l.006-.005c.255.3.6.037.682-.064a.108.108,0,0,1,.175-.021.384.384,0,0,0,.609-.191,7.526,7.526,0,0,0,.085-.847.678.678,0,0,0-.272.127.087.087,0,0,0-.02.043c-.01.075-.02.16-.032.24a.215.215,0,0,1-.005.021.058.058,0,0,1-.025.022.082.082,0,0,1-.128-.064c-.06-.3-.308-.352-.46.127-.1.1-.286.112-.307-.021.026-.325-.091-.368-.322-.218-.075-.639-.151-1.245-.226-1.883.1,0,.184.08.273-.043a3.842,3.842,0,0,0-.408-1.079l-.018-.022a.009.009,0,0,1-.008-.005H8.447c0-.005-.012-.005-.013-.011s-.023-.005-.033,0m-.7,3.5a.131.131,0,0,1,.139.1.188.188,0,0,1-.029.17c-.02.038-.087.022-.136.022a.124.124,0,0,1-.123-.069c-.018-.059.032-.118.056-.165s0-.011.008-.016a.178.178,0,0,1,.085-.038" transform="translate(-4.836 -7.738)" fill="#fff"/>
    <path id="Path_6" data-name="Path 6" d="M11.232,7.958a.47.47,0,0,0-.176.053A.42.42,0,0,0,11,8.517c.1.048.2.166.131.226-.279.336-1.01.9-1.047,1.006V9.76h.006a1.716,1.716,0,0,0,.545.005V9.76a8.136,8.136,0,0,0,.9-1.022c-.037-.037-.075-.064-.112-.1a.075.075,0,0,1,0-.118.365.365,0,0,0,.031-.511.407.407,0,0,0-.226-.048m-.035.293c.046-.005.1.048.127.111s.014.139-.031.154-.108-.037-.138-.106-.014-.144.034-.154c0,0,0-.005.008-.005" transform="translate(-5.908 -7.721)" fill="#fff"/>
    <path id="Path_7" data-name="Path 7" d="M4.78,14.814a1.835,1.835,0,0,0-.151,1.469.292.292,0,0,0,.316.117c.174-.085.252-.484.209-.627-.058-.107-.1-.123-.163-.032-.121.277-.173.085-.185-.075a4.135,4.135,0,0,1,.033-.788c.031-.218,0-.154-.061-.063" transform="translate(-4.54 -9.392)" fill="#fff"/>
    <path id="Path_8" data-name="Path 8" d="M19.764,12.3c-.268-.655-.642-1.3-.76-1.544s-1.015-1.708-1.148-1.879c-.292-.389.473.165-.1-.612-.215-.208-.226-.218-.412-.389-.087-.075-.313-.2-.349.011a1.346,1.346,0,0,0,.019.463,1.644,1.644,0,0,0,.226.394,29.825,29.825,0,0,1,2.493,4.5c.124-.063.1-.835.024-.947" transform="translate(-7.611 -7.674)" fill="#fff"/>
    <path id="Path_9" data-name="Path 9" d="M19.1,14.529c-.055.064.129.356.369.351.4-.047.753-.3,1.076-.969a1.855,1.855,0,0,0,.246-.745A18.335,18.335,0,0,0,20.525,9.4a.666.666,0,0,1,.01-.261c.026-.037.114,0,.16-.085.07-.08-.18-.729-.322-.979-.05-.112-.069-.186-.151.011a1.571,1.571,0,0,0-.14.713c.191,1.48.249,2.787.377,4.264a.652.652,0,0,1-.093.437,3.736,3.736,0,0,1-1.259,1.033" transform="translate(-8.131 -7.723)" fill="#fff"/>
    <path id="Path_10" data-name="Path 10" d="M25.109,17.383c-.289.187-.289.4-.054.41a1.375,1.375,0,0,0,1.2-.644,2.341,2.341,0,0,0,.194-.829,21.969,21.969,0,0,0-.217-4.072,2.02,2.02,0,0,1-.04-.383c.027-.069.156.011.2-.075.071-.075-.334-.665-.478-.915-.048-.112-.066-.187-.151.016a1.262,1.262,0,0,0-.083.708,43.925,43.925,0,0,1,.4,4.6,1.482,1.482,0,0,1-.08.377,2.763,2.763,0,0,1-.391.517c-.133.106-.41.212-.5.292" transform="translate(-9.56 -8.413)" fill="#fff"/>
    <path id="Path_11" data-name="Path 11" d="M26.253,13.048c0-.377.01-.7,0-.985s-.127-1.336-.162-1.559-.08-.569-.134-.841a2.561,2.561,0,0,1-.05-.479c.021-.075.114.005.155-.085a3.206,3.206,0,0,0-.377-1.182c-.052-.111-.151-.075-.27.107-.115.117-.075.383-.029.639a26.387,26.387,0,0,1,.455,5.052c-.017.133.421-.41.417-.665" transform="translate(-9.671 -7.695)" fill="#fff"/>
    <path id="Path_12" data-name="Path 12" d="M23.518,11.549c-.182-.005-.56-.394-.67-.622a.487.487,0,0,1,.021-.336c.067-.047.17-.106.246-.047,0,0,.08.122.065.139.1.053.141.021.151-.027.006-.075-.031-.122-.031-.207.041-.24.282-.272.377-.123a.948.948,0,0,1,.1.415c0,.069-.1-.011-.151.005s-.069.086-.075.151c-.012.176-.029.447-.031.655" transform="translate(-9.052 -8.283)" fill="#fff"/>
    <path id="Path_13" data-name="Path 13" d="M19.041,13.468c.051-.517-.017-1.56-.021-1.863-.017-.713-.123-2.093-.17-2.322-.057-.436.157.048.127-.207a2.9,2.9,0,0,0-.534-1.123c-.08-.128-.075-.154-.2.032a1.5,1.5,0,0,0,.017.873,17.909,17.909,0,0,1,.336,2.534,25.4,25.4,0,0,1,.02,2.694c.136,0,.354-.25.429-.618" transform="translate(-7.906 -7.695)" fill="#fff"/>
    <path id="Path_14" data-name="Path 14" d="M26.381,12.647c-.316-.6-.8-1.3-.925-1.544s-1.215-2.028-1.351-2.185c-.4-.463.182-.075-.075-.442a3.347,3.347,0,0,0-.47-.511c-.093-.064-.151-.2-.181.021a4.9,4.9,0,0,0-.014.585.784.784,0,0,0,.158.362,34.067,34.067,0,0,1,2.853,4.658c.121-.063.079-.835,0-.942" transform="translate(-9.184 -7.699)" fill="#fff"/>
    <path id="Path_15" data-name="Path 15" d="M18.685,21.782a.312.312,0,0,0-.09.554c-2.972,0-7.533-.053-8.507-.053-.549,0-2.278-.075-2.31-.075a1.678,1.678,0,0,0,1.61.745c1.321,0,7.434-.016,9.172-.016a.741.741,0,0,0,.11.713l.007.005a.01.01,0,0,0,.011.005h.005c.116.032.166-.064.207-.127a11.149,11.149,0,0,0,1.333-.005c.066.106.132.207.255.191.217-.053.387-.08.395-.575,0,0-.023-.841-.515-.788-.117.016-.443.053-.443.053-.377-.048-.658-.053-1.082-.075.04-.053.108-.282.023-.362a.138.138,0,0,0-.1-.032h-.008a.034.034,0,0,1-.009-.011v-.005a1,1,0,0,1-.047-.144h-.01m.2,1.205c.431.021.838.005,1.273.026a.194.194,0,0,1-.011.245c0,.005-.005.005-.006.005h-.012c-.141-.005-.221-.005-.362-.011,0-.011,0-.016,0-.026-.035-.112-.274-.1-.333-.011v.026a.029.029,0,0,0,0,.016,2.732,2.732,0,0,1-.554-.021c-.053-.075-.047-.213.018-.25" transform="translate(-5.339 -11.131)" fill="#fff"/>
    <path id="Path_16" data-name="Path 16" d="M12.247,8.4c-.289.926.167,1.948.482,1.852.226.1.371-.389.466-.921.065-.151.112-.165.145-.09-.01.713.044.873.207,1.086a.475.475,0,0,0,.685.011c.023-.021.282-.314.282-.314a.154.154,0,0,1,.236-.011c.084.085.075.24.258.34a.51.51,0,0,0,.563-.133c.1-.2.127-.267.174-.341.075-.111.2-.063.2-.026-.011.064-.082.123-.036.234.09.075.111.026.163.011.184-.1.322-.548.322-.548.006-.17-.075-.154-.133-.117s-.075.064-.145.111c-.089.011-.264.08-.348-.069-.09-.181-.09-.436-.159-.617,0-.011-.115-.282-.007-.3.053.011.169.047.189-.064.059-.106-.123-.415-.246-.564a.249.249,0,0,0-.4-.016.534.534,0,0,0-.107.33.568.568,0,0,0,.1.447,1.485,1.485,0,0,1,.226.91.332.332,0,0,1-.294.17c-.075-.021-.2-.059-.271-.612a4.378,4.378,0,0,0-.146-1.293c-.058-.17-.1-.335-.24-.042a.724.724,0,0,0-.083.634,2.093,2.093,0,0,1,.09.985,1.775,1.775,0,0,1-.169.271.258.258,0,0,1-.356.053.428.428,0,0,1-.216-.338,5.407,5.407,0,0,0-.035-1.092c-.086-.2-.231-.128-.292-.069a2.594,2.594,0,0,0-.534,1.23c-.083.3-.171.212-.232.09-.151-.154-.16-1.39-.34-1.187" transform="translate(-6.419 -7.647)" fill="#fff"/>
    <path id="Path_17" data-name="Path 17" d="M12.476,11.188c0,.005,0,.005-.008.005V11.2c-.019.011-.044.048-.093.09a.514.514,0,0,0-.093.4c0,.027.158.511.292.857a2.989,2.989,0,0,1,.111,1.156,2.705,2.705,0,0,1-1.036,1.214.479.479,0,0,1-.432,0v-.005a.309.309,0,0,1-.117-.277,2.643,2.643,0,0,0,1.042-1.205,1.411,1.411,0,0,0,.028-.874.919.919,0,0,0-.177-.4v-.005c.058-.032.208.1.233.016a1.308,1.308,0,0,0-.3-.618.235.235,0,0,0-.368-.026c-.124.08-.151.362-.093.612.068.181.251.213.381.585v.005a.794.794,0,0,1-.023.389,4.131,4.131,0,0,1-.78.82l-.005.005v.006h-.008v-.006a.861.861,0,0,0,0-.122c0-.106.038-.362.035-.41V13.4c-.222.165-.3.665-.34.814a10.087,10.087,0,0,0-1.582,1.219c-.194.336,1.334-.394,1.507-.479a.008.008,0,0,1,.007.005,1.388,1.388,0,0,0,.136.314.759.759,0,0,0,.824.3,2.743,2.743,0,0,0,1.192-1.118c.045-.075.118-.133.184-.075a1.83,1.83,0,0,0,1.688,1c.191-.261.1-.394.023-.442-.025-.021-.412-.191-.471-.362-.037-.154.053-.293.239-.4a7.364,7.364,0,0,0,1.559-.335,1.657,1.657,0,0,1,.171-.6.271.271,0,0,1,.088-.107v-.011a.03.03,0,0,0,0-.011l-.088-.059-1.693-.011a.2.2,0,0,1-.047-.026V12.98a.1.1,0,0,1,.053-.038c.407-.059,1.124-.191,1.171-.974a.651.651,0,0,0-.6-.74.67.67,0,0,0-.519.771c-.014.1.033.309-.062.33-.624.069-1.3.506-1.328.82h-.008l0,.005h-.008l-.008-.005a.182.182,0,0,1-.083-.192,4.1,4.1,0,0,0-.429-1.629c-.086-.1-.125-.139-.151-.144h-.011m2.476.7a.233.233,0,0,1,.237.2v.02l-.011.011c-.033.037-.105.032-.178-.017a.2.2,0,0,1-.1-.151v-.006c0-.011,0-.016.008-.016l0-.011c0-.005,0-.005.008-.011a.053.053,0,0,1,.04-.016m-1.575,1.608H13.4a4.361,4.361,0,0,0,.709.09c.2.016.294.186.11.261s-.356.123-.356.421a.446.446,0,0,1,0,.255c0,.005,0,.011-.008.011v.011H13.85l-.008.005a.008.008,0,0,1-.007.005c-.045.005-.108-.047-.156-.069a1.1,1.1,0,0,1-.47-.782.191.191,0,0,1,.176-.208" transform="translate(-5.672 -8.518)" fill="#fff"/>
    <path id="Path_18" data-name="Path 18" d="M7.5,8.478c.2.1.562.059.547-.293,0-.032-.006-.138-.008-.165-.038-.106-.151-.085-.173.027-.008.032.012.09-.015.111s-.079.005-.075-.09a.157.157,0,0,0-.032-.085.05.05,0,0,0-.047-.016c-.026.005-.026.011-.038.037a.249.249,0,0,0-.015.08c0,.037-.018.048-.041.053s-.017.005-.04-.011-.029-.022-.029-.048a.484.484,0,0,0-.009-.085.087.087,0,0,0-.049-.032c-.108,0-.115.138-.108.191-.009.011-.013.255.132.325" transform="translate(-5.236 -7.72)" fill="#fff"/>
    <path id="Path_19" data-name="Path 19" d="M15.093,12.094c.2.1.659.043.548-.3a1.633,1.633,0,0,0-.012-.165c-.038-.106-.146-.08-.173.027-.006.037.015.1-.013.117s-.08,0-.075-.1a.141.141,0,0,0-.032-.08.053.053,0,0,0-.044-.016c-.026.005-.026.011-.041.037a.31.31,0,0,0-.014.08c0,.038-.016.048-.039.053s-.017.005-.039-.011-.029-.021-.029-.048a.236.236,0,0,0-.013-.085.075.075,0,0,0-.047-.032c-.105,0-.111.138-.108.191-.006.005-.011.25.134.325" transform="translate(-7.111 -8.61)" fill="#fff"/>
    <path id="Path_20" data-name="Path 20" d="M19.523,10.6c.194.1.561.053.546-.3,0-.026-.006-.133-.008-.165-.041-.1-.151-.08-.173.032-.009.032.011.09-.017.106s-.075.011-.075-.09a.2.2,0,0,0-.032-.085.087.087,0,0,0-.043-.005c-.026,0-.026.005-.041.032a.329.329,0,0,0-.015.085.042.042,0,0,1-.039.048c-.025.005-.02.005-.038-.011a.06.06,0,0,1-.029-.048.415.415,0,0,0-.013-.09.12.12,0,0,0-.047-.021c-.106,0-.115.138-.108.186-.008.011-.012.255.133.325" transform="translate(-8.203 -8.241)" fill="#fff"/>
    <path id="Path_21" data-name="Path 21" d="M21.79,12.878a1.481,1.481,0,0,0-.114,1.3,1,1,0,0,0,.42.538.273.273,0,0,0,.44-.053c.2-.234.2-.825.3-.942.068-.218.231-.181.311-.085a.87.87,0,0,0,.285.277.441.441,0,0,0,.628.047.777.777,0,0,0,.335-.458,18.729,18.729,0,0,0,.025-2.693c-.01-.064-.193-1.107-.193-1.119s-.026-.532-.045-.655c0-.053-.015-.069.032-.063.05.053.054.058.086.069.05.011.095-.085.066-.176-.151-.319-.311-.644-.466-.958-.035-.047-.085-.09-.146.005a.4.4,0,0,0-.113.288c.014.226.05.463.063.692.063.388.124.782.187,1.176.058.836.075,1.6.133,2.438a1.657,1.657,0,0,1-.2.868s-.136.1-.231-.005a3.124,3.124,0,0,1-.342-.511c-.14-.143-.234-.106-.333,0a5.379,5.379,0,0,0-.582,1.235c-.05.085-.185.16-.334-.005a1.943,1.943,0,0,1-.207-1.205" transform="translate(-8.744 -7.696)" fill="#fff"/>
    <path id="Path_22" data-name="Path 22" d="M19.612,8.039a.753.753,0,0,1,.257.671c-.035.24-.127.505-.194.469s.048-.24-.019-.458c-.041-.144-.278-.4-.253-.479a.16.16,0,0,1,.209-.2" transform="translate(-8.205 -7.739)" fill="#fff"/>
    <path id="Path_23" data-name="Path 23" d="M22.312,13.132a6.563,6.563,0,0,0-.037-1.055C22.265,11.8,22,9.516,21.938,9.3c-.066-.4.264-.053.226-.287-.113-.293-.4-.724-.485-.979-.056-.112-.033-.208-.151-.027a2.513,2.513,0,0,0-.108,1,24.416,24.416,0,0,1,.536,4.812c.135,0,.291-.346.359-.692" transform="translate(-8.702 -7.709)" fill="#fff"/>
    <path id="Path_24" data-name="Path 24" d="M25.418,11.677c.163.1.255.591.238.734-.031.261-.115.543-.176.505s.013-.388-.019-.495c-.038-.154-.253-.436-.231-.521a.166.166,0,0,1,.188-.226" transform="translate(-9.643 -8.637)" fill="#fff"/>
    <path id="Path_25" data-name="Path 25" d="M10.784,13.639c.151.064.241.432.226.538-.031.191-.111.394-.169.377s.014-.288-.019-.368c-.011-.2-.226-.3-.218-.383-.041-.154.086-.181.182-.16" transform="translate(-6.035 -9.122)" fill="#fff"/>
    <path id="Path_26" data-name="Path 26" d="M5.373,7.879c.226.075.238.447.226.559-.031.2-.111.41-.17.383s0-.293-.032-.377c-.032-.123-.226-.33-.2-.394-.044-.133.085-.2.179-.17" transform="translate(-4.7 -7.701)" fill="#fff"/>
    <path id="Path_27" data-name="Path 27" d="M11.272,10.2a.485.485,0,0,0-.132.6.245.245,0,0,0,.279.1c.169.026.27-.357.27-.357s.005-.106-.194.1c-.086.022-.1-.016-.118-.069a.532.532,0,0,1,.026-.3c.031-.1-.034-.139-.131-.069" transform="translate(-6.156 -8.267)" fill="#fff"/>
    <path id="Path_28" data-name="Path 28" d="M12.961,7.679a.718.718,0,0,0-.263.5c-.007.128-.029.128.047.213.056.09.112.08.222.011a.259.259,0,0,0,.107-.17c.027-.151-.139.069-.161-.1s.07-.213.172-.368c0-.1,0-.17-.124-.09" transform="translate(-6.551 -7.644)" fill="#fff"/>
    <path id="Path_29" data-name="Path 29" d="M14.411,7.9a3.457,3.457,0,0,0-.075.58c-.031.144.136.207.209.021a1.9,1.9,0,0,0,.118-.634c-.033-.218-.166-.207-.252.032" transform="translate(-6.956 -7.662)" fill="#fff"/>
    <path id="Path_30" data-name="Path 30" d="M23.15,12.717c.024-.022.927-.746.927-.746.093-.037.075.377.031.368a3.574,3.574,0,0,1-.957.753c-.044.032-.089-.282,0-.372" transform="translate(-9.119 -8.711)" fill="#fff"/>
    <path id="Path_31" data-name="Path 31" d="M24.2,12.952c.161.09.226.612.206.753.006.277-.151.5-.215.469s.007-.346-.024-.458a2.446,2.446,0,0,1-.151-.527c-.045-.176.086-.272.183-.24" transform="translate(-9.343 -8.951)" fill="#fff"/>
    <path id="Path_32" data-name="Path 32" d="M17.113,15.864a1.363,1.363,0,0,1,.257-.25.143.143,0,0,1,.175.037c.016.1-.056.192-.033.325.018.053.033.118.121.091a.561.561,0,0,1,.42-.139c.113,0,.114.212.047.212a2.9,2.9,0,0,0-.574.226.12.12,0,0,1-.166-.026.2.2,0,0,1-.016-.186c.008-.107-.031-.165-.111-.16-.06.042-.112.063-.142-.011-.011-.059-.015-.09.024-.123" transform="translate(-7.634 -9.606)" fill="#fff"/>
    <path id="Path_33" data-name="Path 33" d="M25.462,16.231a.141.141,0,0,1,0,.2c-.065.069-.108.1-.173.17-.029.059-.047.144.043.17.168.053.56-.226.56-.24a.141.141,0,0,0,.037-.154c-.037-.047-.119-.021-.174-.021-.029,0-.115-.021-.075-.1a.774.774,0,0,0,.071-.151c.025-.069.005-.111-.093-.151a.738.738,0,0,0-.241,0c-.058.016-.075.048-.089.123,0,.117.069.111.136.16" transform="translate(-9.654 -9.691)" fill="#fff"/>
  </g>
</svg>
