<svg id="vuesax_outline_call-calling" data-name="vuesax/outline/call-calling" xmlns="http://www.w3.org/2000/svg" width="17.762" height="17.762" viewBox="0 0 17.762 17.762">
  <g id="call-calling">
    <path id="Vector" d="M11.989,15.912a6.771,6.771,0,0,1-2.627-.585A13.9,13.9,0,0,1,6.705,13.8a23.1,23.1,0,0,1-2.494-2.124A22.111,22.111,0,0,1,2.087,9.192,13.811,13.811,0,0,1,.577,6.557,6.852,6.852,0,0,1,0,3.915,4.46,4.46,0,0,1,.3,2.279,3.953,3.953,0,0,1,1.3.844,2.688,2.688,0,0,1,3.212,0a2,2,0,0,1,.836.185,1.694,1.694,0,0,1,.71.6L6.476,3.2a2.867,2.867,0,0,1,.355.629,1.663,1.663,0,0,1,.148.659,1.57,1.57,0,0,1-.237.814,2.961,2.961,0,0,1-.5.629l-.5.525a.361.361,0,0,0,.022.052,5.691,5.691,0,0,0,.607.821c.363.414.7.792,1.044,1.14.437.429.8.77,1.14,1.051a4.82,4.82,0,0,0,.858.614l-.015.037.54-.533a2.764,2.764,0,0,1,.666-.511,1.562,1.562,0,0,1,1.443-.081,3.369,3.369,0,0,1,.622.348l2.457,1.747a1.59,1.59,0,0,1,.592.7,2.142,2.142,0,0,1,.163.8,2.468,2.468,0,0,1-.237,1.044,3.447,3.447,0,0,1-.592.888,3.8,3.8,0,0,1-1.414,1.014A4.37,4.37,0,0,1,11.989,15.912ZM3.212,1.11a1.622,1.622,0,0,0-1.147.533A2.839,2.839,0,0,0,1.34,2.687,3.238,3.238,0,0,0,1.11,3.915,5.706,5.706,0,0,0,1.6,6.121,12.354,12.354,0,0,0,2.99,8.533,20.475,20.475,0,0,0,5,10.887,20.838,20.838,0,0,0,7.356,12.9a12.025,12.025,0,0,0,2.435,1.4,4.414,4.414,0,0,0,3.427.259,2.732,2.732,0,0,0,1.014-.733,2.4,2.4,0,0,0,.414-.622,1.311,1.311,0,0,0,.133-.57.883.883,0,0,0-.081-.37.56.56,0,0,0-.207-.222l-2.457-1.747a2.122,2.122,0,0,0-.407-.229.389.389,0,0,0-.481.022,1.687,1.687,0,0,0-.429.333l-.562.555a1.055,1.055,0,0,1-1.073.222l-.2-.089a6.309,6.309,0,0,1-1.051-.747c-.355-.3-.74-.659-1.206-1.118-.363-.37-.725-.762-1.1-1.2A6.314,6.314,0,0,1,4.766,7l-.089-.222a1.381,1.381,0,0,1-.059-.37A.95.95,0,0,1,4.9,5.721l.555-.577a2.143,2.143,0,0,0,.333-.414.475.475,0,0,0,.081-.252.688.688,0,0,0-.059-.237,2.123,2.123,0,0,0-.237-.392L3.856,1.421a.682.682,0,0,0-.274-.229A.927.927,0,0,0,3.212,1.11ZM9.4,10.184l-.118.5.2-.518A.091.091,0,0,0,9.4,10.184Z" transform="translate(0.925 0.925)" fill="#61C5CB"/>
    <path id="Vector-2" data-name="Vector" d="M3.145,3.7a.559.559,0,0,1-.555-.555,2.469,2.469,0,0,0-.71-1.3A2,2,0,0,0,.555,1.11.559.559,0,0,1,0,.555.559.559,0,0,1,.555,0,3.026,3.026,0,0,1,2.687,1.088,3.423,3.423,0,0,1,3.7,3.145.559.559,0,0,1,3.145,3.7Z" transform="translate(10.546 3.515)" fill="#61C5CB"/>
    <path id="Vector-3" data-name="Vector" d="M5.736,6.291a.559.559,0,0,1-.555-.555A4.627,4.627,0,0,0,.555,1.11.559.559,0,0,1,0,.555.559.559,0,0,1,.555,0,5.745,5.745,0,0,1,6.291,5.736.559.559,0,0,1,5.736,6.291Z" transform="translate(10.546 0.925)" fill="#61C5CB"/>
    <path id="Vector-4" data-name="Vector" d="M0,0H17.762V17.762H0Z" fill="none" opacity="0"/>
  </g>
</svg>
