<svg xmlns="http://www.w3.org/2000/svg" width="24" height="24" viewBox="0 0 24 24">
  <g id="vuesax_bulk_card-tick" data-name="vuesax/bulk/card-tick" transform="translate(-300 -508)">
    <g id="card-tick">
      <path id="Vector" d="M20,4.37V5.6H0V4.14A4.144,4.144,0,0,1,4.15,0H14V2.57A1.866,1.866,0,0,0,16.03,4.6h2.94A2.09,2.09,0,0,0,20,4.37Z" transform="translate(302 511.4)" fill="#fff" opacity="0.4"/>
      <path id="Vector-2" data-name="Vector" d="M0,0V7.46A4.144,4.144,0,0,0,4.15,11.6h11.7A4.144,4.144,0,0,0,20,7.46V0ZM6,8.25H4a.75.75,0,0,1,0-1.5H6a.75.75,0,0,1,0,1.5Zm6.5,0h-4a.75.75,0,0,1,0-1.5h4a.75.75,0,0,1,0,1.5Z" transform="translate(302 517)" fill="#fff"/>
      <path id="Vector-3" data-name="Vector" d="M4.97,0H2.03A1.866,1.866,0,0,0,0,2.03V4.97A1.866,1.866,0,0,0,2.03,7H4.97A1.866,1.866,0,0,0,7,4.97V2.03A1.866,1.866,0,0,0,4.97,0Zm.66,2.45L3.26,5.22a.49.49,0,0,1-.37.18H2.87a.514.514,0,0,1-.37-.15L1.4,4.17a.519.519,0,0,1,0-.73.51.51,0,0,1,.73,0l.7.69,2-2.34a.521.521,0,0,1,.73-.06A.5.5,0,0,1,5.63,2.45Z" transform="translate(316 509)" fill="#fff"/>
      <path id="Vector-4" data-name="Vector" d="M0,0H24V24H0Z" transform="translate(300 508)" fill="none" opacity="0"/>
    </g>
  </g>
</svg>
