<svg id="vuesax_outline_edit-2" data-name="vuesax/outline/edit-2" xmlns="http://www.w3.org/2000/svg" width="23.959" height="23.959" viewBox="0 0 23.959 23.959">
  <g id="edit-2">
    <path id="Vector" d="M2.284,18.063a2.287,2.287,0,0,1-1.587-.6,2.377,2.377,0,0,1-.679-2.027L.387,12.2a3.6,3.6,0,0,1,.869-1.857l8.2-8.675C11.5-.5,13.635-.555,15.8,1.491s2.226,4.183.18,6.349l-8.2,8.675a3.6,3.6,0,0,1-1.807.968l-3.214.549C2.594,18.043,2.444,18.063,2.284,18.063ZM12.656,1.481a3.049,3.049,0,0,0-2.116,1.2l-8.2,8.685a2.305,2.305,0,0,0-.469,1L1.505,15.6a.877.877,0,0,0,.22.769.9.9,0,0,0,.779.18L5.718,16a2.23,2.23,0,0,0,.968-.519l8.2-8.675c1.238-1.318,1.687-2.536-.12-4.233A3.157,3.157,0,0,0,12.656,1.481Z" transform="translate(3.246 1.424)" fill="#61C5CB"/>
    <path id="Vector-2" data-name="Vector" d="M6.178,6.637h-.07A6.847,6.847,0,0,1,.008.867.761.761,0,0,1,.637.008.761.761,0,0,1,1.5.637,5.363,5.363,0,0,0,6.267,5.149a.75.75,0,0,1,.669.819A.773.773,0,0,1,6.178,6.637Z" transform="translate(11.133 4.295)" fill="#61C5CB"/>
    <path id="Vector-3" data-name="Vector" d="M18.718,1.5H.749A.754.754,0,0,1,0,.749.754.754,0,0,1,.749,0H18.718a.754.754,0,0,1,.749.749A.754.754,0,0,1,18.718,1.5Z" transform="translate(2.246 21.214)" fill="#61C5CB"/>
    <path id="Vector-4" data-name="Vector" d="M0,0H23.959V23.959H0Z" fill="none" opacity="0"/>
  </g>
</svg>
