<svg id="vuesax_bulk_export" data-name="vuesax/bulk/export" xmlns="http://www.w3.org/2000/svg" width="24" height="24" viewBox="0 0 24 24">
  <g id="export">
    <path id="Vector" d="M14.8,0H5.2A4.832,4.832,0,0,0,0,5.2V7.79A4.835,4.835,0,0,0,5.2,13h9.59a4.832,4.832,0,0,0,5.2-5.2V5.2A4.819,4.819,0,0,0,14.8,0Z" transform="translate(2 9)" fill="#fff" opacity="0.4"/>
    <path id="Vector-2" data-name="Vector" d="M7.978,3.568,4.628.218a.754.754,0,0,0-1.06,0L.218,3.568a.75.75,0,0,0,1.06,1.06l2.07-2.07v10.69a.75.75,0,0,0,1.5,0V2.557l2.07,2.07a.75.75,0,0,0,1.06-1.06Z" transform="translate(7.903 2.003)" fill="#fff"/>
    <path id="Vector-3" data-name="Vector" d="M0,0H24V24H0Z" fill="none" opacity="0"/>
  </g>
</svg>
