<svg xmlns="http://www.w3.org/2000/svg" width="24" height="24" viewBox="0 0 24 24">
  <g id="vuesax_outline_element-3" data-name="vuesax/outline/element-3" transform="translate(-620 -252)">
    <g id="element-3">
      <path id="Vector" d="M7.02,10H2.98C.97,10,0,9.11,0,7.27V2.73C0,.89.98,0,2.98,0H7.02C9.03,0,10,.89,10,2.73V7.26C10,9.11,9.02,10,7.02,10ZM2.98,1.5c-1.34,0-1.48.38-1.48,1.23V7.26c0,.86.14,1.23,1.48,1.23H7.02c1.34,0,1.48-.38,1.48-1.23V2.73c0-.86-.14-1.23-1.48-1.23Z" transform="translate(632.75 253.25)" fill="#292d32"/>
      <path id="Vector-2" data-name="Vector" d="M7.02,10H2.98C.97,10,0,9.02,0,7.02V2.98C0,.97.98,0,2.98,0H7.02C9.03,0,10,.98,10,2.98V7.02C10,9.02,9.02,10,7.02,10ZM2.98,1.5C1.8,1.5,1.5,1.8,1.5,2.98V7.02c0,1.18.3,1.48,1.48,1.48H7.02C8.2,8.5,8.5,8.2,8.5,7.02V2.98C8.5,1.8,8.2,1.5,7.02,1.5Z" transform="translate(632.75 264.75)" fill="#292d32"/>
      <path id="Vector-3" data-name="Vector" d="M7.02,10H2.98C.97,10,0,9.11,0,7.27V2.73C0,.89.98,0,2.98,0H7.02C9.03,0,10,.89,10,2.73V7.26C10,9.11,9.02,10,7.02,10ZM2.98,1.5c-1.34,0-1.48.38-1.48,1.23V7.26c0,.86.14,1.23,1.48,1.23H7.02c1.34,0,1.48-.38,1.48-1.23V2.73c0-.86-.14-1.23-1.48-1.23Z" transform="translate(621.25 253.25)" fill="#292d32"/>
      <path id="Vector-4" data-name="Vector" d="M7.02,10H2.98C.97,10,0,9.02,0,7.02V2.98C0,.97.98,0,2.98,0H7.02C9.03,0,10,.98,10,2.98V7.02C10,9.02,9.02,10,7.02,10ZM2.98,1.5C1.8,1.5,1.5,1.8,1.5,2.98V7.02c0,1.18.3,1.48,1.48,1.48H7.02C8.2,8.5,8.5,8.2,8.5,7.02V2.98C8.5,1.8,8.2,1.5,7.02,1.5Z" transform="translate(621.25 264.75)" fill="#292d32"/>
      <path id="Vector-5" data-name="Vector" d="M0,0H24V24H0Z" transform="translate(620 252)" fill="none" opacity="0"/>
    </g>
  </g>
</svg>
