<svg xmlns="http://www.w3.org/2000/svg" width="24" height="24" viewBox="0 0 24 24">
  <g id="vuesax_outline_link-2" data-name="vuesax/outline/link-2" transform="translate(-108 -252)">
    <g id="link-2">
      <path id="Vector" d="M6.5,11.318A6.5,6.5,0,0,1,1.9.228a.75.75,0,0,1,1.06,1.06,4.99,4.99,0,1,0,7.07-.01.75.75,0,0,1,1.06-1.06,6.518,6.518,0,0,1,0,9.2A6.432,6.432,0,0,1,6.5,11.318Z" transform="translate(110.493 262.182)"/>
      <path id="Vector-2" data-name="Vector" d="M10.99,11.733a.742.742,0,0,1-.53-.22.754.754,0,0,1,0-1.06,5.25,5.25,0,1,0-7.42,0,.75.75,0,1,1-1.06,1.06,6.749,6.749,0,1,1,9.55.01A.8.8,0,0,1,10.99,11.733Z" transform="translate(116.08 254.428)"/>
      <path id="Vector-3" data-name="Vector" d="M0,0H24V24H0Z" transform="translate(108 252)" fill="none" opacity="0"/>
    </g>
  </g>
</svg>
