<svg id="vuesax_outline_row-vertical" data-name="vuesax/outline/row-vertical" xmlns="http://www.w3.org/2000/svg" width="24" height="24" viewBox="0 0 24 24">
  <g id="row-vertical">
    <path id="Vector" d="M18.65,10H2.85C.93,10,0,9.02,0,7.02V2.98C0,.97.93,0,2.85,0h15.8c1.92,0,2.85.98,2.85,2.98V7.02C21.5,9.02,20.57,10,18.65,10ZM2.85,1.5c-1.01,0-1.35.21-1.35,1.48V7.02c0,1.27.34,1.48,1.35,1.48h15.8C19.66,8.5,20,8.29,20,7.02V2.98c0-1.27-.34-1.48-1.35-1.48Z" transform="translate(1.25 12.75)" fill="#292d32"/>
    <path id="Vector-2" data-name="Vector" d="M18.65,10H2.85C.93,10,0,9.02,0,7.02V2.98C0,.97.93,0,2.85,0h15.8c1.92,0,2.85.98,2.85,2.98V7.02C21.5,9.02,20.57,10,18.65,10ZM2.85,1.5c-1.01,0-1.35.21-1.35,1.48V7.02c0,1.27.34,1.48,1.35,1.48h15.8C19.66,8.5,20,8.29,20,7.02V2.98c0-1.27-.34-1.48-1.35-1.48Z" transform="translate(1.25 1.25)" fill="#292d32"/>
    <path id="Vector-3" data-name="Vector" d="M0,0H24V24H0Z" fill="none" opacity="0"/>
  </g>
</svg>
