<svg id="logout" xmlns="http://www.w3.org/2000/svg" width="20" height="20" viewBox="0 0 20 20">
  <path id="Vector" d="M.624,5.528a.62.62,0,0,1-.443-.184.63.63,0,0,1,0-.886l1.7-1.7-1.7-1.7A.626.626,0,0,1,1.067.182L3.206,2.32a.63.63,0,0,1,0,.886L1.067,5.345A.62.62,0,0,1,.624,5.528Z" transform="translate(13.895 7.287)" fill="#61C5CB"/>
  <path id="Vector-2" data-name="Vector" d="M9.123,1.253H.627A.631.631,0,0,1,0,.627.631.631,0,0,1,.627,0h8.5a.631.631,0,0,1,.627.627A.631.631,0,0,1,9.123,1.253Z" transform="translate(7.477 9.423)" fill="#61C5CB"/>
  <path id="Vector-3" data-name="Vector" d="M7.31,14.57A6.984,6.984,0,0,1,0,7.285,6.984,6.984,0,0,1,7.31,0a.63.63,0,0,1,.627.624.63.63,0,0,1-.627.624A5.784,5.784,0,0,0,1.253,7.285,5.784,5.784,0,0,0,7.31,13.321a.624.624,0,1,1,0,1.249Z" transform="translate(2.515 2.715)" fill="#61C5CB"/>
  <path id="Vector-4" data-name="Vector" d="M0,0H20V20H0Z" fill="none" opacity="0"/>
</svg>
