<svg width="140" height="140" viewBox="0 0 140 140" fill="none" xmlns="http://www.w3.org/2000/svg">
<g id="Group 210 1">
<g id="Group 210">
<path id="Ellipse 10" opacity="0.1" d="M70 140C108.66 140 140 108.66 140 70C140 31.3401 108.66 0 70 0C31.3401 0 0 31.3401 0 70C0 108.66 31.3401 140 70 140Z" fill="#61C5CB"/>
<g id="svgexport-6 - 2022-06-29T112418.925">
<path id="Path 799" d="M70.38 62.964C70.0803 62.9643 69.7834 62.9054 69.5064 62.7908C69.2294 62.6762 68.9778 62.5082 68.7658 62.2962C68.5538 62.0842 68.3858 61.8326 68.2712 61.5556C68.1566 61.2786 68.0977 60.9817 68.098 60.682V54.408C68.098 52.5926 67.3768 50.8515 66.0931 49.5679C64.8095 48.2842 63.0684 47.563 61.253 47.563C59.4376 47.563 57.6965 48.2842 56.4129 49.5679C55.1292 50.8515 54.408 52.5926 54.408 54.408V60.682C54.4144 60.9856 54.36 61.2875 54.2482 61.5698C54.1364 61.8522 53.9694 62.1094 53.7569 62.3264C53.5444 62.5434 53.2908 62.7158 53.0108 62.8335C52.7308 62.9511 52.4302 63.0118 52.1265 63.0118C51.8228 63.0118 51.5222 62.9511 51.2422 62.8335C50.9622 62.7158 50.7086 62.5434 50.4961 62.3264C50.2836 62.1094 50.1166 61.8522 50.0048 61.5698C49.893 61.2875 49.8386 60.9856 49.845 60.682V54.408C49.845 51.3824 51.0469 48.4807 53.1863 46.3413C55.3257 44.2019 58.2274 43 61.253 43C64.2786 43 67.1803 44.2019 69.3197 46.3413C71.4591 48.4807 72.661 51.3824 72.661 54.408V60.682C72.6613 60.9817 72.6025 61.2784 72.4879 61.5554C72.3734 61.8323 72.2054 62.0839 71.9936 62.2959C71.7817 62.5078 71.5302 62.6759 71.2533 62.7905C70.9764 62.9052 70.6797 62.9641 70.38 62.964V62.964Z" fill="#90A4AE"/>
<path id="Path 800" d="M74.372 88.632H48.134C46.7729 88.6301 45.4682 88.0886 44.5058 87.1262C43.5433 86.1638 43.0019 84.8591 43 83.498V64.105C43.0019 62.7439 43.5433 61.4392 44.5058 60.4768C45.4682 59.5143 46.7729 58.9729 48.134 58.971H74.372C75.7331 58.9729 77.0378 59.5143 78.0002 60.4768C78.9627 61.4392 79.5041 62.7439 79.506 64.105V83.498C79.5041 84.8591 78.9627 86.1638 78.0002 87.1262C77.0378 88.0886 75.7331 88.6301 74.372 88.632V88.632Z" fill="#FFC107"/>
<path id="Path 801" d="M61.253 43C58.2285 43.0034 55.3288 44.2065 53.1901 46.3451C51.0515 48.4838 49.8484 51.3835 49.845 54.408V58.971H54.408V54.408C54.4101 52.5932 55.132 50.8534 56.4152 49.5702C57.6984 48.287 59.4382 47.5651 61.253 47.563V43Z" fill="#7D8F97"/>
<path id="Path 802" d="M61.253 58.971H48.134C46.7729 58.9729 45.4682 59.5143 44.5058 60.4768C43.5433 61.4392 43.0019 62.7439 43 64.105V83.498C43.0019 84.8591 43.5433 86.1638 44.5058 87.1262C45.4682 88.0886 46.7729 88.6301 48.134 88.632H61.253V58.971Z" fill="#DEA806"/>
<g id="rotate" style="transform-origin: center; transform-box: fill-box; animation: spin 2s linear infinite;">
<path id="Path 803" d="M95.995 88.361C95.4633 88.073 94.839 88.0078 94.2593 88.1797C93.6795 88.3517 93.1917 88.7467 92.903 89.278C92.429 90.1726 91.7756 90.96 90.9837 91.5908C90.1918 92.2217 89.2783 92.6825 88.3004 92.9446C87.3224 93.2067 86.3009 93.2644 85.2997 93.1141C84.2984 92.9638 83.3389 92.6087 82.481 92.071L83.569 90.983C83.8084 90.7439 83.9715 90.4392 84.0377 90.1073C84.1038 89.7755 84.0701 89.4315 83.9406 89.1188C83.8112 88.8062 83.5919 88.539 83.3105 88.3511C83.0292 88.1631 82.6984 88.0629 82.36 88.063H76.66C76.435 88.0625 76.2121 88.1063 76.0041 88.192C75.796 88.2777 75.6069 88.4035 75.4476 88.5623C75.2882 88.7211 75.1617 88.9098 75.0753 89.1175C74.9889 89.3253 74.9443 89.548 74.944 89.773V95.473C74.9439 95.8114 75.0441 96.1422 75.2321 96.4235C75.42 96.7049 75.6872 96.9242 75.9998 97.0536C76.3125 97.1831 76.6565 97.2169 76.9883 97.1507C77.3202 97.0845 77.6249 96.9214 77.864 96.682L79.171 95.375C80.553 96.406 82.141 97.1271 83.8268 97.4892C85.5126 97.8512 87.2566 97.8457 88.9401 97.473C90.6236 97.1004 92.207 96.3693 93.5825 95.3296C94.958 94.2899 96.0932 92.966 96.911 91.448C97.0541 91.1848 97.144 90.896 97.1754 90.5981C97.2067 90.3002 97.179 89.999 97.0939 89.7118C97.0087 89.4246 96.8677 89.157 96.679 88.9243C96.4902 88.6917 96.2575 88.4986 95.994 88.356L95.995 88.361Z" fill="#607D8B"/>
<path id="Path 804" d="M96.702 74.502C96.3893 74.373 96.0454 74.3395 95.7137 74.4058C95.382 74.472 95.0773 74.6349 94.838 74.874L93.531 76.182C92.1471 75.151 90.5571 74.4305 88.8695 74.0699C87.1819 73.7092 85.4363 73.7168 83.7518 74.0921C82.0674 74.4674 80.4837 75.2016 79.1089 76.2446C77.734 77.2877 76.6003 78.615 75.785 80.136C75.5082 80.668 75.4519 81.2876 75.6282 81.8608C75.8045 82.434 76.1993 82.9149 76.7272 83.1994C77.2551 83.4839 77.8738 83.5493 78.4495 83.3814C79.0253 83.2134 79.5118 82.8257 79.804 82.302C80.2748 81.405 80.9259 80.6151 81.7165 79.9817C82.5071 79.3483 83.4201 78.8852 84.3982 78.6215C85.3763 78.3577 86.3983 78.299 87.4002 78.4489C88.402 78.5989 89.362 78.9544 90.22 79.493L89.134 80.581C88.8946 80.8201 88.7315 81.1248 88.6653 81.4567C88.5992 81.7885 88.6329 82.1325 88.7624 82.4452C88.8918 82.7578 89.1111 83.025 89.3925 83.2129C89.6738 83.4009 90.0046 83.5011 90.343 83.501H96.043C96.2685 83.5019 96.492 83.4583 96.7005 83.3726C96.9091 83.2869 97.0987 83.1609 97.2584 83.0017C97.4182 82.8425 97.5449 82.6534 97.6313 82.4451C97.7177 82.2368 97.7621 82.0135 97.762 81.788V76.088C97.7622 75.7484 97.6616 75.4164 97.4729 75.134C97.2841 74.8517 97.0159 74.6317 96.702 74.502V74.502Z" fill="#607D8B"/>
<g id="Group 181">
<path id="Path 805" d="M82.358 88.062H76.658C76.433 88.0616 76.2101 88.1056 76.0022 88.1914C75.7942 88.2772 75.6051 88.4031 75.4458 88.562C75.2866 88.7209 75.1602 88.9097 75.0739 89.1175C74.9876 89.3252 74.9431 89.548 74.943 89.773V95.473C74.9429 95.8114 75.0431 96.1422 75.2311 96.4235C75.419 96.7049 75.6862 96.9242 75.9988 97.0536C76.3115 97.1831 76.6555 97.2168 76.9873 97.1507C77.3192 97.0845 77.6239 96.9214 77.863 96.682L79.17 95.375C81.2439 96.9221 83.7626 97.757 86.35 97.755V93.196C84.9811 93.184 83.642 92.7948 82.48 92.071L83.568 90.983C83.8076 90.7437 83.9708 90.4387 84.0368 90.1066C84.1029 89.7745 84.0689 89.4302 83.9391 89.1175C83.8092 88.8047 83.5895 88.5375 83.3077 88.3498C83.0258 88.1621 82.6946 88.0623 82.356 88.063L82.358 88.062Z" fill="#546D79"/>
<path id="Path 806" d="M86.351 73.802C84.1815 73.803 82.053 74.3927 80.1922 75.5081C78.3315 76.6236 76.8083 78.223 75.785 80.136C75.4978 80.6691 75.4341 81.2944 75.6079 81.8745C75.7818 82.4545 76.1789 82.9418 76.712 83.229C76.976 83.3712 77.2653 83.4601 77.5636 83.4904C77.8619 83.5208 78.1633 83.4922 78.4505 83.4061C79.0305 83.2322 79.5178 82.8351 79.805 82.302C80.4377 81.115 81.3808 80.1221 82.5337 79.4293C83.6866 78.7364 85.0059 78.3696 86.351 78.368V73.802Z" fill="#546D79"/>
</g>
</g>
</g>
</g>
</g>
<style>
  @keyframes spin {
    0% {
      transform: rotate(0deg);
    }

    100% {
      transform: rotate(360deg);
    }
  }
</style>
</svg>
