<svg xmlns="http://www.w3.org/2000/svg" width="20" height="20" viewBox="0 0 20 20">
  <g id="vuesax_outline_shield-tick" data-name="vuesax/outline/shield-tick" transform="translate(-300 -188)">
    <g id="shield-tick" transform="translate(300 188)">
      <path id="Vector" d="M7.792,17.923a4.242,4.242,0,0,1-2.517-.792L1.692,14.456A4.669,4.669,0,0,1,0,11.09V4.89a3.507,3.507,0,0,1,2.15-3.1L6.308.231a4.82,4.82,0,0,1,2.95,0L13.417,1.79a3.507,3.507,0,0,1,2.15,3.1v6.192a4.654,4.654,0,0,1-1.692,3.367l-3.583,2.675A4.108,4.108,0,0,1,7.792,17.923ZM6.75,1.406,2.592,2.965A2.283,2.283,0,0,0,1.258,4.9V11.09a3.445,3.445,0,0,0,1.183,2.367l3.583,2.675a3.186,3.186,0,0,0,3.542,0l3.583-2.675a3.429,3.429,0,0,0,1.183-2.367V4.89A2.3,2.3,0,0,0,13,2.956L8.842,1.4A3.648,3.648,0,0,0,6.75,1.406Z" transform="translate(2.208 1.044)" fill="#61C5CB"/>
      <path id="Vector-2" data-name="Vector" d="M1.965,4.831a.618.618,0,0,1-.442-.183L.181,3.306a.625.625,0,1,1,.883-.883l.9.9L5.106.181a.625.625,0,0,1,.883.883L2.406,4.648A.618.618,0,0,1,1.965,4.831Z" transform="translate(6.919 7.027)" fill="#61C5CB"/>
      <path id="Vector-3" data-name="Vector" d="M0,0H20V20H0Z" fill="none" opacity="0"/>
    </g>
  </g>
</svg>
