<svg width="140" height="140" viewBox="0 0 140 140" fill="none" xmlns="http://www.w3.org/2000/svg">
<g id="Group 183 1">
<path id="Ellipse 11" opacity="0.1" d="M70 140C108.66 140 140 108.66 140 70C140 31.3401 108.66 0 70 0C31.3401 0 0 31.3401 0 70C0 108.66 31.3401 140 70 140Z" fill="#61C5CB"/>
<g id="translate" style="transform-origin: center; transform-box: fill-box; animation: translateY 2s linear infinite;">
<path id="Path 807" d="M93.621 60.121C92.7326 60.1207 91.8807 59.7677 91.2525 59.1395C90.6243 58.5113 90.2713 57.6594 90.271 56.771V53.421C90.2694 52.533 89.916 51.6818 89.2881 51.0539C88.6602 50.426 87.809 50.0726 86.921 50.071H83.571C83.1311 50.071 82.6955 49.9844 82.289 49.816C81.8826 49.6476 81.5133 49.4009 81.2022 49.0898C80.8911 48.7787 80.6444 48.4094 80.476 48.003C80.3077 47.5965 80.221 47.1609 80.221 46.721C80.221 46.2811 80.3077 45.8455 80.476 45.439C80.6444 45.0326 80.8911 44.6633 81.2022 44.3522C81.5133 44.0411 81.8826 43.7944 82.289 43.626C82.6955 43.4577 83.1311 43.371 83.571 43.371H86.921C89.5855 43.3742 92.1399 44.434 94.0239 46.3181C95.908 48.2021 96.9678 50.7565 96.971 53.421V56.771C96.9707 57.6594 96.6177 58.5113 95.9895 59.1395C95.3613 59.7677 94.5094 60.1207 93.621 60.121V60.121Z" fill="#90A4AE"/>
<path id="Path 808" d="M56.771 96.971H53.421C50.7565 96.9678 48.2021 95.908 46.3181 94.0239C44.434 92.1399 43.3742 89.5855 43.371 86.921V83.571C43.371 83.1311 43.4577 82.6955 43.626 82.289C43.7944 81.8826 44.0411 81.5133 44.3522 81.2022C44.6633 80.8911 45.0326 80.6444 45.439 80.476C45.8455 80.3077 46.2811 80.221 46.721 80.221C47.1609 80.221 47.5965 80.3077 48.003 80.476C48.4094 80.6444 48.7787 80.8911 49.0898 81.2022C49.4009 81.5133 49.6476 81.8826 49.816 82.289C49.9844 82.6955 50.071 83.1311 50.071 83.571V86.921C50.0726 87.809 50.426 88.6602 51.0539 89.2881C51.6818 89.916 52.533 90.2694 53.421 90.271H56.771C57.6595 90.271 58.5116 90.6239 59.1398 91.2522C59.7681 91.8804 60.121 92.7325 60.121 93.621C60.121 94.5095 59.7681 95.3616 59.1398 95.9898C58.5116 96.6181 57.6595 96.971 56.771 96.971Z" fill="#90A4AE"/>
<path id="Path 809" d="M86.643 46.721H80.221C80.2213 47.6094 80.5743 48.4613 81.2025 49.0895C81.8307 49.7177 82.6826 50.0707 83.571 50.071H86.921C87.809 50.0726 88.6602 50.426 89.2881 51.0539C89.916 51.6818 90.2694 52.533 90.271 53.421V56.771C90.2713 57.6594 90.6243 58.5113 91.2525 59.1395C91.8807 59.7677 92.7326 60.1207 93.621 60.121V60.121V53.421C93.5571 51.6162 92.7928 49.9073 91.4901 48.6566C90.1874 47.4058 88.4489 46.7115 86.643 46.721Z" fill="#82939C"/>
<path id="Path 810" d="M53.699 93.621H60.121C60.1207 92.7326 59.7677 91.8807 59.1395 91.2525C58.5113 90.6243 57.6594 90.2713 56.771 90.271H53.421C52.533 90.2694 51.6818 89.916 51.0539 89.2881C50.426 88.6602 50.0726 87.809 50.071 86.921V83.571C50.0707 82.6826 49.7177 81.8307 49.0895 81.2025C48.4613 80.5743 47.6094 80.2213 46.721 80.221V80.221V86.921C46.7849 88.7258 47.5492 90.4347 48.8519 91.6854C50.1546 92.9362 51.8931 93.6305 53.699 93.621V93.621Z" fill="#82939C"/>
<path id="Path 811" d="M60.959 70.171H39.184C36.7413 70.1691 34.3992 69.198 32.6718 67.4709C30.9445 65.7437 29.9731 63.4017 29.971 60.959V39.184C29.9729 36.7411 30.9441 34.3988 32.6715 32.6715C34.3988 30.9441 36.7411 29.9729 39.184 29.971H60.959C63.4017 29.9731 65.7437 30.9445 67.4709 32.6718C69.198 34.3992 70.1691 36.7413 70.171 39.184V60.959C70.1689 63.4015 69.1977 65.7434 67.4705 67.4705C65.7434 69.1977 63.4015 70.1689 60.959 70.171Z" fill="#FFC107"/>
<path id="Path 812" d="M54.259 60.121C53.5925 60.121 52.9533 59.8562 52.482 59.385C52.0108 58.9137 51.746 58.2745 51.746 57.608V46.721C51.746 46.2768 51.5695 45.8507 51.2554 45.5366C50.9413 45.2225 50.5152 45.046 50.071 45.046C49.6268 45.046 49.2007 45.2225 48.8866 45.5366C48.5725 45.8507 48.396 46.2768 48.396 46.721V57.609C48.3829 58.2667 48.1124 58.893 47.6426 59.3535C47.1729 59.8139 46.5413 60.0719 45.8835 60.0719C45.2257 60.0719 44.5941 59.8139 44.1244 59.3535C43.6546 58.893 43.3841 58.2667 43.371 57.609V46.721C43.371 45.8411 43.5443 44.9699 43.881 44.157C44.2177 43.3441 44.7112 42.6055 45.3334 41.9834C45.9555 41.3612 46.6941 40.8677 47.507 40.531C48.3199 40.1943 49.1911 40.021 50.071 40.021C50.9509 40.021 51.8221 40.1943 52.635 40.531C53.4479 40.8677 54.1865 41.3612 54.8086 41.9834C55.4308 42.6055 55.9243 43.3441 56.261 44.157C56.5977 44.9699 56.771 45.8411 56.771 46.721V57.609C56.7707 58.2751 56.506 58.9139 56.035 59.385C55.5639 59.856 54.9251 60.1207 54.259 60.121Z" fill="white"/>
<path id="Path 813" d="M54.259 55.096H45.884C45.2263 55.0829 44.6 54.8124 44.1395 54.3426C43.6791 53.8729 43.4211 53.2413 43.4211 52.5835C43.4211 51.9257 43.6791 51.2941 44.1395 50.8244C44.6 50.3546 45.2263 50.0841 45.884 50.071H54.259C54.5932 50.0643 54.9253 50.1244 55.236 50.2477C55.5466 50.3709 55.8296 50.5549 56.0683 50.7889C56.307 51.0229 56.4966 51.3021 56.626 51.6103C56.7555 51.9184 56.8221 52.2493 56.8221 52.5835C56.8221 52.9177 56.7555 53.2486 56.626 53.5568C56.4966 53.8649 56.307 54.1441 56.0683 54.3781C55.8296 54.6121 55.5466 54.7961 55.236 54.9193C54.9253 55.0426 54.5932 55.1027 54.259 55.096Z" fill="white"/>
<path id="Path 814" d="M50.071 45.046C49.6268 45.0463 49.201 45.2228 48.8869 45.5369C48.5728 45.851 48.3963 46.2768 48.396 46.721V50.071H50.071V45.046ZM50.071 29.971H39.184C36.7411 29.9729 34.3988 30.9441 32.6715 32.6715C30.9441 34.3988 29.9729 36.7411 29.971 39.184V60.959C29.9731 63.4017 30.9445 65.7437 32.6718 67.4709C34.3992 69.198 36.7413 70.1691 39.184 70.171H50.071V55.096H48.396V57.609C48.3829 58.2667 48.1124 58.893 47.6426 59.3535C47.1729 59.8139 46.5413 60.0719 45.8835 60.0719C45.2257 60.0719 44.5941 59.8139 44.1244 59.3535C43.6546 58.893 43.3841 58.2667 43.371 57.609V46.721C43.3729 44.9446 44.0793 43.2415 45.3354 41.9854C46.5915 40.7293 48.2946 40.0229 50.071 40.021V40.021V29.971Z" fill="#DEA806"/>
<path id="Path 815" d="M50.071 40.021C48.2946 40.0229 46.5915 40.7293 45.3354 41.9854C44.0793 43.2415 43.3729 44.9446 43.371 46.721V57.609C43.3841 58.2667 43.6546 58.893 44.1244 59.3535C44.5941 59.8139 45.2257 60.0719 45.8835 60.0719C46.5413 60.0719 47.1729 59.8139 47.6426 59.3535C48.1124 58.893 48.3829 58.2667 48.396 57.609V55.096H45.884C45.2263 55.0829 44.6 54.8124 44.1395 54.3426C43.6791 53.8729 43.4211 53.2413 43.4211 52.5835C43.4211 51.9257 43.6791 51.2941 44.1395 50.8244C44.6 50.3546 45.2263 50.0841 45.884 50.071H48.396V46.721C48.3963 46.2768 48.5728 45.851 48.8869 45.5369C49.201 45.2228 49.6268 45.0463 50.071 45.046V45.046V40.021Z" fill="#E3E2E2"/>
<path id="Path 816" d="M50.071 50.071H45.884C45.2263 50.0841 44.6 50.3546 44.1395 50.8244C43.6791 51.2941 43.4211 51.9257 43.4211 52.5835C43.4211 53.2413 43.6791 53.8729 44.1395 54.3426C44.6 54.8124 45.2263 55.0829 45.884 55.096H50.071V50.071Z" fill="#E3E2E2"/>
<path id="Path 817" d="M101.159 110.371H79.384C76.9413 110.369 74.5992 109.398 72.8718 107.671C71.1445 105.944 70.1731 103.602 70.171 101.159V79.384C70.1729 76.9411 71.1441 74.5988 72.8715 72.8715C74.5988 71.1441 76.9411 70.1729 79.384 70.171H101.159C103.602 70.1731 105.944 71.1445 107.671 72.8718C109.398 74.5992 110.369 76.9413 110.371 79.384V101.159C110.369 103.602 109.398 105.943 107.671 107.671C105.943 109.398 103.602 110.369 101.159 110.371Z" fill="#607D8B"/>
<path id="Path 818" d="M97.809 88.596H82.734C82.0763 88.5829 81.45 88.3124 80.9895 87.8426C80.5291 87.3729 80.2711 86.7413 80.2711 86.0835C80.2711 85.4257 80.5291 84.7941 80.9895 84.3244C81.45 83.8546 82.0763 83.5841 82.734 83.571H97.809C98.4667 83.5841 99.093 83.8546 99.5535 84.3244C100.014 84.7941 100.272 85.4257 100.272 86.0835C100.272 86.7413 100.014 87.3729 99.5535 87.8426C99.093 88.3124 98.4667 88.5829 97.809 88.596V88.596Z" fill="white"/>
<path id="Path 819" d="M90.272 87.759C89.942 87.759 89.6152 87.694 89.3103 87.5677C89.0054 87.4414 88.7284 87.2563 88.495 87.023C88.2617 86.7896 88.0766 86.5126 87.9503 86.2077C87.824 85.9028 87.759 85.576 87.759 85.246V82.734C87.7523 82.3998 87.8124 82.0677 87.9357 81.757C88.0589 81.4464 88.2429 81.1634 88.4769 80.9247C88.7109 80.686 88.9901 80.4964 89.2982 80.367C89.6064 80.2375 89.9373 80.1709 90.2715 80.1709C90.6057 80.1709 90.9366 80.2375 91.2447 80.367C91.5529 80.4964 91.8321 80.686 92.0661 80.9247C92.3001 81.1634 92.4841 81.4464 92.6073 81.757C92.7306 82.0677 92.7907 82.3998 92.784 82.734V85.247C92.784 85.9135 92.5192 86.5527 92.048 87.024C91.5767 87.4952 90.9375 87.76 90.271 87.76L90.272 87.759Z" fill="white"/>
<path id="Path 820" d="M97.808 100.321L97.238 100.254C88.804 98.291 83.862 95.353 83.57 86.161C83.5593 85.831 83.6138 85.5021 83.7304 85.1932C83.8469 84.8843 84.0232 84.6013 84.2491 84.3606C84.4751 84.1199 84.7463 83.926 85.0473 83.7902C85.3482 83.6544 85.673 83.5792 86.003 83.569C86.3339 83.5537 86.6646 83.605 86.9754 83.7198C87.2861 83.8346 87.5707 84.0106 87.8122 84.2374C88.0537 84.4642 88.2473 84.7371 88.3814 85.04C88.5155 85.343 88.5875 85.6697 88.593 86.001C88.764 91.354 90.201 93.455 98.375 95.358C98.9759 95.4974 99.5045 95.8529 99.8602 96.3569C100.216 96.8608 100.374 97.478 100.304 98.0909C100.234 98.7037 99.9411 99.2695 99.4811 99.6804C99.021 100.091 98.4258 100.319 97.809 100.319L97.808 100.321Z" fill="white"/>
<path id="Path 821" d="M82.734 100.321C82.1169 100.322 81.5211 100.095 81.0605 99.6844C80.5998 99.2738 80.3065 98.7079 80.2365 98.0948C80.1665 97.4817 80.3247 96.8642 80.681 96.3604C81.0373 95.8565 81.5666 95.5014 82.168 95.363C90.342 93.463 91.783 91.356 91.95 86.006C91.9487 85.6727 92.016 85.3427 92.1478 85.0366C92.2796 84.7305 92.473 84.4547 92.716 84.2266C92.9589 83.9984 93.2463 83.8228 93.5601 83.7105C93.8739 83.5982 94.2075 83.5518 94.54 83.574C94.8698 83.5843 95.1942 83.6595 95.4949 83.7953C95.7956 83.9311 96.0666 84.1247 96.2925 84.3652C96.5183 84.6058 96.6946 84.8884 96.8112 85.197C96.9278 85.5057 96.9824 85.8342 96.972 86.164C96.684 95.356 91.739 98.291 83.304 100.257L82.735 100.321H82.734Z" fill="white"/>
<path id="Path 822" d="M90.271 88.596H88.841C89.0156 89.7582 89.5108 90.8487 90.271 91.745V88.596ZM90.271 70.171H79.384C76.9411 70.1729 74.5988 71.1441 72.8715 72.8715C71.1441 74.5988 70.1729 76.9411 70.171 79.384V101.159C70.1731 103.602 71.1445 105.944 72.8718 107.671C74.5992 109.398 76.9413 110.369 79.384 110.371H90.271V97.909C88.0509 98.9683 85.7114 99.7567 83.303 100.257L82.734 100.321C82.1172 100.321 81.5219 100.094 81.0618 99.6829C80.6017 99.2721 80.3089 98.7062 80.2393 98.0933C80.1697 97.4804 80.3282 96.8633 80.6845 96.3598C81.0407 95.8562 81.5699 95.5014 82.171 95.363C83.4392 95.0783 84.6916 94.7271 85.923 94.311C84.7528 92.6097 84.0176 90.6474 83.782 88.596H82.734C82.3998 88.6027 82.0677 88.5426 81.757 88.4193C81.4464 88.2961 81.1634 88.1121 80.9247 87.8781C80.686 87.6441 80.4964 87.3649 80.367 87.0568C80.2375 86.7486 80.1709 86.4177 80.1709 86.0835C80.1709 85.7493 80.2375 85.4184 80.367 85.1103C80.4964 84.8021 80.686 84.5229 80.9247 84.2889C81.1634 84.0549 81.4464 83.8709 81.757 83.7477C82.0677 83.6244 82.3998 83.5643 82.734 83.571H87.759V82.733C87.7593 82.0669 88.024 81.4281 88.495 80.957C88.9661 80.486 89.6049 80.2213 90.271 80.221V80.221V70.171Z" fill="#58717D"/>
<path id="Path 823" d="M88.656 87.171C88.692 87.6486 88.7534 88.1239 88.84 88.595H90.27V87.757C89.6796 87.757 89.108 87.5496 88.655 87.171H88.656ZM86.043 83.571H82.733C82.0753 83.5841 81.449 83.8546 80.9885 84.3244C80.5281 84.7941 80.2701 85.4257 80.2701 86.0835C80.2701 86.7413 80.5281 87.3729 80.9885 87.8426C81.449 88.3124 82.0753 88.5829 82.733 88.596H83.775C83.664 87.7896 83.5972 86.9777 83.575 86.164C83.5532 85.4982 83.7967 84.851 84.252 84.3647C84.7073 83.8784 85.3372 83.5929 86.003 83.571C86.0163 83.5694 86.0297 83.5694 86.043 83.571ZM87.758 83.571H86.221C86.7917 83.5893 87.3376 83.8089 87.762 84.191V83.571H87.758Z" fill="#E3E2E2"/>
<path id="Path 824" d="M90.272 80.221C89.6055 80.221 88.9663 80.4858 88.495 80.957C88.0238 81.4283 87.759 82.0675 87.759 82.734V84.191C88.0136 84.4209 88.2192 84.7 88.3632 85.0114C88.5072 85.3228 88.5867 85.6601 88.597 86.003C88.61 86.412 88.631 86.803 88.661 87.172C89.1132 87.552 89.6853 87.7596 90.276 87.758V87.758V80.221H90.272Z" fill="#E3E2E2"/>
<path id="Path 825" d="M86.13 83.571H86.006C85.6761 83.5811 85.3514 83.6561 85.0504 83.7917C84.7495 83.9274 84.4783 84.121 84.2522 84.3616C84.0262 84.6021 83.8498 84.8848 83.733 85.1936C83.6163 85.5023 83.5616 85.8311 83.572 86.161C83.5942 86.9747 83.661 87.7866 83.772 88.593C84.0061 90.6448 84.7414 92.6074 85.913 94.308C87.5626 93.8437 89.0642 92.9608 90.272 91.745V91.745C89.5131 90.8479 89.0181 89.7578 88.842 88.596C88.7554 88.1249 88.694 87.6496 88.658 87.172C88.628 86.8 88.608 86.412 88.594 86.003C88.5845 85.6599 88.5053 85.3224 88.3612 85.0109C88.2171 84.6994 88.0112 84.4204 87.756 84.191C87.3321 83.8094 86.7871 83.5898 86.217 83.571H86.13Z" fill="#E3E2E2"/>
<path id="Path 826" d="M90.271 91.745C89.0671 92.9611 87.5677 93.8433 85.92 94.305C84.6886 94.7211 83.4362 95.0723 82.168 95.357C81.5669 95.4964 81.038 95.8522 80.6823 96.3565C80.3266 96.8607 80.1689 97.4783 80.2392 98.0914C80.3095 98.7044 80.603 99.2702 81.0636 99.6809C81.5243 100.091 82.1199 100.318 82.737 100.318L83.306 100.251C85.7133 99.7511 88.0518 98.9634 90.271 97.905V91.745Z" fill="#E3E2E2"/>
</g>
</g>
<style>
@keyframes translateY {
  0%,
  100% {
    transform: translateY(2px);
  }

  50% {
    transform: translateY(-2px);
  }
}
</style>
</svg>
